<svg width="437" height="201" viewBox="0 0 437 201" fill="none" xmlns="http://www.w3.org/2000/svg">
<g clip-path="url(#clip0_1_1114)">
<path d="M92.8401 22.3352C92.4601 22.3352 92.0959 22.1219 91.9217 21.7585C91.3754 20.6287 91.1616 19.4989 91.2725 18.4086C91.8505 12.8308 100.52 10.0498 106.854 8.01929C113.536 5.87822 120.614 4.64572 127.882 4.3613C128.421 4.3218 128.92 4.77213 128.943 5.34098C128.967 5.90192 128.524 6.37596 127.962 6.39966C120.876 6.67619 113.987 7.86918 107.479 9.95495C102.341 11.6062 93.7348 14.3635 93.2993 18.6219C93.2281 19.3409 93.3785 20.0994 93.7585 20.8894C94.004 21.3951 93.7902 22.0034 93.2835 22.2483C93.141 22.3194 92.9906 22.351 92.8401 22.351V22.3352Z" fill="#408F95"/>
<path d="M207.031 28.5689C207.031 28.5689 206.952 28.5689 206.912 28.5689C205.274 28.3793 203.635 28.0395 202.043 27.5497C199.929 26.9018 198.354 26.1118 197.689 25.7799L197.467 25.6693C190.254 22.1773 182.812 18.9538 175.354 16.1017C168.489 13.4787 163.058 11.4008 155.758 9.58365C148.055 7.67169 140.074 6.4945 132.046 6.09947C131.484 6.06786 131.048 5.59383 131.08 5.03288C131.111 4.47194 131.579 4.0374 132.149 4.069C140.311 4.47194 148.419 5.66493 156.257 7.61639C163.684 9.46514 169.154 11.5588 176.09 14.2055C183.604 17.0813 191.101 20.3206 198.362 23.8364L198.607 23.9549C199.288 24.2946 200.705 25.0057 202.653 25.6061C204.126 26.0565 205.638 26.3725 207.158 26.5463C207.72 26.6095 208.116 27.1152 208.053 27.6682C207.997 28.1896 207.554 28.5689 207.039 28.5689H207.031Z" fill="#408F95"/>
<path d="M111.683 40.3563C111.525 40.3563 111.366 40.3168 111.216 40.2457C109.466 39.3371 106.853 37.9466 104.375 36.4613C103.718 36.0662 102.491 35.3394 100.907 34.2728C100.424 33.9489 99.9019 33.5933 99.3635 33.1983C97.4316 31.8236 95.5631 30.3304 93.7976 28.7661C93.75 28.7187 93.7025 28.6712 93.663 28.6159C93.5759 28.5053 93.4413 28.3394 93.2671 28.134C91.4778 25.9692 89.7914 23.7176 90.496 22.1058C90.7177 21.5923 91.264 20.9681 92.5783 20.897C93.1483 20.8575 93.6234 21.2921 93.655 21.853C93.6867 22.4139 93.2592 22.8959 92.697 22.9275C92.5308 22.9354 92.4278 22.9591 92.3645 22.9749C92.3645 23.3383 92.7366 24.2943 94.8426 26.8383C95.001 27.0279 95.1277 27.1859 95.2227 27.3044C96.917 28.7977 98.7063 30.2198 100.551 31.5392C101.082 31.9184 101.58 32.2581 102.047 32.5821C103.583 33.617 104.779 34.3281 105.42 34.7152C107.859 36.1689 110.424 37.5437 112.15 38.4364C112.649 38.6972 112.847 39.3055 112.585 39.8111C112.403 40.1588 112.047 40.3642 111.683 40.3642V40.3563Z" fill="#408F95"/>
<path d="M152.275 46.2899C142.314 46.2899 132.75 45.168 132.632 45.1522C126.622 44.4016 120.557 43.2955 114.619 41.8655C114.073 41.7312 113.733 41.1861 113.867 40.6409C114.002 40.0958 114.548 39.7561 115.094 39.8904C120.961 41.3046 126.947 42.3949 132.877 43.1296C133.004 43.1454 146.471 44.7256 157.967 44.1093C161.53 43.9197 165.148 43.4852 168.711 42.8057C170.302 42.5055 171.165 42.2922 174.784 41.4152L179.162 40.3486C180.595 40.001 181.846 39.685 182.954 39.4084C186.264 38.5789 188.449 38.0258 190.571 37.8757C193.714 37.6545 196.921 37.9231 200.088 38.6816C200.634 38.808 200.974 39.361 200.84 39.9062C200.713 40.4513 200.167 40.791 199.613 40.6567C196.644 39.9536 193.651 39.7008 190.713 39.9062C188.766 40.0405 186.763 40.5461 183.453 41.3836C182.337 41.668 181.078 41.984 179.645 42.3317L175.267 43.3983C171.696 44.2673 170.738 44.5043 169.091 44.8125C165.441 45.4998 161.736 45.9502 158.078 46.1477C156.17 46.2504 154.214 46.2899 152.275 46.2899Z" fill="#408F95"/>
<path d="M210.238 28.64C209.803 28.64 209.399 28.3556 209.265 27.9211C209.098 27.3838 209.399 26.815 209.938 26.6491C212.313 25.9222 224.696 22.2089 234.901 20.7078C239.881 19.973 243.531 19.9019 247.505 20.455C248.804 20.6367 250.102 20.8895 251.369 21.1976C251.915 21.332 252.248 21.885 252.113 22.4301C251.979 22.9753 251.433 23.315 250.878 23.1728C249.683 22.8805 248.448 22.6435 247.213 22.4696C243.444 21.9403 239.96 22.0114 235.186 22.7146C225.131 24.1999 212.875 27.8658 210.523 28.5926C210.42 28.6242 210.325 28.64 210.223 28.64H210.238Z" fill="#408F95"/>
<path d="M239.564 65.6146C239.493 65.6146 239.422 65.6146 239.35 65.5909C234.79 64.6112 227.031 60.8426 224.196 58.2433C221.75 56.4182 219.794 54.9724 218.132 53.7399C212.376 49.4815 209.993 47.7275 202.432 41.3754C202.004 41.012 201.949 40.3721 202.305 39.9454C202.669 39.5188 203.31 39.4635 203.738 39.819C211.251 46.1237 213.619 47.8777 219.343 52.1045C221.022 53.3449 222.993 54.7986 225.463 56.6474C225.495 56.6711 225.519 56.6948 225.55 56.7185C228.1 59.0887 235.55 62.6913 239.786 63.5999C240.34 63.7184 240.688 64.2557 240.57 64.8087C240.467 65.2828 240.047 65.6146 239.572 65.6146H239.564Z" fill="#408F95"/>
<path d="M239.564 65.6149C239.295 65.6149 239.018 65.5042 238.82 65.2909C236.168 62.4704 232.763 57.7221 231.631 51.1172C231.291 49.142 230.499 44.5202 232.36 39.2662C234.062 34.4706 237.031 31.6974 240.467 28.4819C243.484 25.6613 246.912 23.2438 250.665 21.2844C251.163 21.0237 251.781 21.2133 252.042 21.711C252.304 22.2088 252.114 22.825 251.615 23.0857C248.028 24.9582 244.75 27.2731 241.868 29.9672C238.496 33.1195 235.827 35.6161 234.292 39.9457C232.605 44.7019 233.334 48.9603 233.65 50.7775C234.695 56.8846 237.854 61.2853 240.317 63.9004C240.705 64.3112 240.681 64.9512 240.269 65.3383C240.071 65.52 239.818 65.6149 239.572 65.6149H239.564Z" fill="#408F95"/>
<path d="M225.338 33.8304C225.037 33.8304 224.744 33.704 224.546 33.4512C224.19 33.0166 224.261 32.3767 224.696 32.0211C226.43 30.6227 228.33 29.4297 230.341 28.4896C232.764 27.3519 235.337 26.5697 237.99 26.1589C238.544 26.072 239.066 26.4512 239.153 27.0121C239.241 27.5652 238.86 28.0866 238.298 28.1735C235.836 28.5528 233.453 29.2796 231.204 30.3383C229.344 31.2153 227.578 32.3135 225.971 33.6171C225.781 33.7672 225.559 33.8462 225.33 33.8462L225.338 33.8304Z" fill="#408F95"/>
<path d="M229.509 55.9128C229.295 55.9128 229.073 55.8417 228.883 55.6995C226.682 54.0009 222.771 50.3429 221.378 44.9231C220.95 43.2481 220.048 39.756 221.623 36.1929C221.845 35.6951 222.106 35.2053 222.399 34.747C222.708 34.273 223.333 34.1387 223.808 34.4468C224.283 34.7549 224.418 35.3791 224.109 35.8531C223.872 36.2166 223.658 36.6116 223.484 37.0145C222.193 39.9378 222.945 42.8531 223.349 44.4253C224.592 49.2605 228.131 52.563 230.126 54.0957C230.57 54.4354 230.657 55.0754 230.309 55.5257C230.111 55.7864 229.81 55.9207 229.501 55.9207L229.509 55.9128Z" fill="#408F95"/>
<path d="M129.054 34.0754C128.84 34.0754 128.627 34.0754 128.405 34.0596C123.773 33.8621 120.496 31.6341 118.952 30.3226C118.524 29.9592 118.469 29.3192 118.833 28.8926C119.197 28.466 119.838 28.4107 120.266 28.7741C121.612 29.9197 124.47 31.8554 128.484 32.0292C132.514 32.1951 135.254 30.5122 137.067 29.3904C138.056 28.7741 138.436 28.4028 138.563 28.2369C138.262 27.8971 136.964 27.3046 132.752 26.554C128.967 25.8825 124.985 25.7166 120.915 26.0642C120.353 26.1037 119.862 25.7008 119.815 25.1398C119.767 24.5789 120.179 24.089 120.741 24.0416C124.985 23.6782 129.149 23.852 133.108 24.5552C136.98 25.2425 140.471 26.0405 140.637 28.1421C140.717 29.098 139.964 29.9908 138.135 31.1206C136.322 32.2425 133.345 34.0754 129.046 34.0754H129.054Z" fill="#408F95"/>
<path d="M111.144 35.5527C110.787 35.5527 110.439 35.3631 110.249 35.0313C109.972 34.5414 110.154 33.9173 110.645 33.6487C113.772 31.9184 116.377 29.6035 118.396 26.7909C119.465 25.2977 120.36 23.6702 121.04 21.9478C121.246 21.4264 121.84 21.1736 122.363 21.379C122.885 21.5844 123.139 22.1769 122.933 22.6984C122.181 24.5708 121.215 26.3485 120.051 27.9681C117.858 31.0336 115.023 33.546 111.635 35.4263C111.476 35.5132 111.31 35.5527 111.144 35.5527Z" fill="#408F95"/>
<path d="M101.779 15.3667C101.93 14.4818 102.769 13.8892 103.648 14.0394C104.534 14.1895 105.128 15.0269 104.978 15.9039C104.827 16.7888 103.988 17.3813 103.109 17.2312C102.223 17.0811 101.629 16.2436 101.779 15.3667Z" fill="#408F95"/>
<path d="M147.462 53.7163C145.68 53.6926 143.946 53.5504 142.236 53.2896C139.893 52.9341 137.565 52.3495 135.324 51.5515C127.09 48.6283 122.585 46.108 115.127 41.9364C114.636 41.6599 114.462 41.0437 114.739 40.5538C115.016 40.064 115.634 39.8902 116.125 40.1667C123.741 44.4251 127.938 46.7716 136.013 49.6395C138.135 50.3901 140.328 50.9431 142.545 51.2829C144.16 51.5278 145.799 51.6621 147.43 51.6858C149.291 51.6147 150.185 51.3619 150.589 51.1802C150.09 50.8404 148.816 50.1768 145.625 49.1734C145.087 49.0075 144.794 48.4307 144.96 47.9014C145.126 47.3642 145.704 47.0639 146.235 47.2378C151.365 48.8495 153.099 49.9556 152.861 51.4488C152.561 53.3133 149.631 53.6373 147.454 53.7242L147.462 53.7163Z" fill="#408F95"/>
<path d="M150.573 49.2764C149.94 49.2764 149.338 49.2448 148.768 49.2132C140.589 48.7075 133.986 46.9694 133.709 46.8904C130.629 46.0687 127.541 45.0653 124.533 43.9118C124.01 43.7064 123.749 43.1218 123.947 42.6003C124.153 42.0789 124.739 41.8182 125.261 42.0157C128.207 43.1455 131.223 44.1252 134.232 44.931C134.501 45.0021 140.906 46.6929 148.887 47.1827C150.724 47.2933 152.703 47.3407 155.023 46.519C156.282 46.0766 157.477 45.4288 158.57 44.5992C159.021 44.2595 159.654 44.3464 159.995 44.7967C160.335 45.247 160.248 45.8791 159.797 46.2188C158.538 47.1748 157.16 47.9175 155.704 48.431C153.811 49.1026 152.093 49.2764 150.565 49.2764H150.573Z" fill="#408F95"/>
<path d="M184.214 53.7163C181.553 53.7163 178.909 53.4556 176.288 52.9341C170.501 51.7727 164.911 49.2919 160.121 45.7603C159.67 45.4285 159.575 44.7886 159.907 44.3382C160.24 43.8879 160.881 43.7931 161.332 44.1249C165.885 47.4827 171.19 49.845 176.684 50.9432C180.817 51.7727 185.037 51.907 189.233 51.3619C189.075 50.003 188.616 47.5933 187.349 45.8552C186.985 45.3574 186.383 44.5279 185.322 43.8563C185.045 43.6746 184.831 43.5719 184.253 43.2875L183.85 43.0899C182.694 42.5132 181.759 42.0313 181.142 41.7073C180.643 41.4466 180.453 40.8304 180.714 40.3326C180.976 39.8349 181.593 39.6453 182.092 39.906C182.702 40.2299 183.62 40.7039 184.76 41.2649L185.156 41.4624C185.766 41.7626 186.043 41.8969 186.423 42.1419C187.808 43.0267 188.584 44.0854 188.996 44.6543C190.967 47.3405 191.3 51.0933 191.355 52.1757C191.379 52.6971 191.007 53.1553 190.492 53.2343C188.402 53.5583 186.304 53.7242 184.206 53.7242L184.214 53.7163Z" fill="#408F95"/>
<path d="M193.097 21.632C191.6 21.632 190.009 21.5293 188.235 21.3397C187.673 21.2764 187.269 20.7787 187.333 20.2178C187.396 19.6568 187.895 19.246 188.457 19.3171C190.167 19.4988 191.687 19.5936 193.112 19.6015C193.675 19.6015 194.126 20.0597 194.126 20.6207C194.126 21.1816 193.667 21.632 193.104 21.632H193.097Z" fill="#408F95"/>
<path d="M194 10.0891C193.897 10.0891 193.786 10.0733 193.684 10.0417C192.543 9.6625 191.403 9.27537 190.263 8.88034C187.12 7.79795 183.866 6.67606 180.493 5.9334C165.814 2.95486 151.516 1.67496 138.009 2.1332C137.454 2.149 136.971 1.71446 136.955 1.15352C136.94 0.592573 137.375 0.118535 137.937 0.102734C151.595 -0.363403 166.06 0.9244 180.913 3.94244C184.42 4.7167 187.722 5.8544 190.92 6.96048C192.053 7.34761 193.185 7.74265 194.317 8.11398C194.855 8.28779 195.14 8.86454 194.966 9.39388C194.824 9.82051 194.428 10.097 194 10.097V10.0891Z" fill="#408F95"/>
<path d="M116.236 7.71125C115.848 7.71125 115.476 7.49004 115.31 7.11871C115.08 6.60517 115.31 6.00472 115.817 5.7756C118.406 4.5984 121.09 3.58712 123.805 2.75756C127.313 1.68307 130.931 0.900908 134.573 0.42687C135.135 0.355764 135.642 0.742895 135.713 1.30384C135.784 1.86479 135.396 2.37043 134.834 2.44153C131.311 2.89977 127.796 3.65823 124.399 4.70111C121.77 5.50698 119.158 6.48666 116.656 7.62435C116.521 7.68755 116.379 7.71915 116.236 7.71915V7.71125Z" fill="#408F95"/>
<path d="M136.425 4.93794C136.093 4.93794 135.76 4.77203 135.562 4.4718C135.262 3.99776 135.396 3.36571 135.871 3.06549C136.085 2.93118 136.402 2.73366 136.79 2.51244C138.246 1.69078 139.822 1.06663 141.469 0.647896C142.743 0.32397 144.058 0.134355 145.38 0.0790503C145.942 0.0553484 146.417 0.489883 146.441 1.05083C146.465 1.61177 146.029 2.08581 145.467 2.10951C144.279 2.15692 143.108 2.33073 141.968 2.61515C140.495 2.98648 139.086 3.54743 137.787 4.27429C137.439 4.4718 137.162 4.64562 136.964 4.76413C136.798 4.87473 136.607 4.92214 136.417 4.92214L136.425 4.93794Z" fill="#408F95"/>
<path d="M150.621 5.8307C150.288 5.8307 149.956 5.66478 149.766 5.36456C149.465 4.89052 149.599 4.26637 150.074 3.95825C150.288 3.82394 150.605 3.62642 150.993 3.4052C152.45 2.58354 154.025 1.95939 155.68 1.54065C156.955 1.21673 158.269 1.02711 159.591 0.971808C160.153 0.940206 160.628 1.38264 160.652 1.94359C160.676 2.50453 160.24 2.97857 159.678 3.00227C158.49 3.04967 157.319 3.22349 156.179 3.50791C154.706 3.87924 153.297 4.44019 151.998 5.16704C151.65 5.36456 151.373 5.53837 151.175 5.65688C151.009 5.76749 150.811 5.8149 150.629 5.8149L150.621 5.8307Z" fill="#408F95"/>
<path d="M163.716 7.67964C163.384 7.67964 163.051 7.51373 162.853 7.2135C162.553 6.73946 162.687 6.11531 163.162 5.80719C163.376 5.67288 163.693 5.47536 164.081 5.25414C165.545 4.43248 167.121 3.80833 168.768 3.3896C170.042 3.06567 171.357 2.87605 172.679 2.82075C173.241 2.79705 173.716 3.23158 173.74 3.79253C173.764 4.35347 173.328 4.82751 172.766 4.85121C171.578 4.89862 170.407 5.07243 169.266 5.35685C167.794 5.72818 166.385 6.28913 165.086 7.01599C164.738 7.2135 164.461 7.38732 164.263 7.50583C164.096 7.61643 163.906 7.66384 163.716 7.66384V7.67964Z" fill="#408F95"/>
<path d="M183.177 49.624H183.153C179.669 49.5371 176.36 48.7549 173.328 47.2854C172.005 46.6455 170.739 45.8791 169.559 45.0021C169.108 44.6624 169.013 44.0304 169.353 43.58C169.694 43.1297 170.327 43.0349 170.778 43.3746C171.855 44.1805 173.019 44.8836 174.214 45.4604C176.985 46.7956 180.01 47.5145 183.201 47.5935C183.763 47.6093 184.206 48.0755 184.198 48.6364C184.182 49.1895 183.731 49.6319 183.177 49.6319V49.624Z" fill="#408F95"/>
<path d="M181.34 45.5234C181.221 45.5234 181.102 45.4997 180.992 45.4602L175.188 43.3428C174.658 43.1532 174.388 42.5685 174.578 42.0392C174.768 41.5098 175.362 41.2412 175.885 41.4308L181.688 43.5482C182.219 43.7378 182.488 44.3225 182.298 44.8518C182.147 45.2626 181.759 45.5234 181.34 45.5234Z" fill="#408F95"/>
<path d="M195.797 21.5374C195.251 21.5374 194.792 21.1028 194.776 20.5498C194.76 19.9888 195.203 19.5227 195.765 19.5069C199.605 19.3963 201.244 18.6536 201.514 16.8681C200.785 14.4268 198.917 12.4437 195.813 10.8162C195.314 10.5555 195.124 9.93924 195.385 9.4415C195.647 8.94376 196.264 8.75415 196.763 9.01487C200.476 10.9584 202.693 13.4155 203.532 16.5205C203.564 16.639 203.572 16.7654 203.564 16.8839C203.137 21.3241 198.014 21.4742 195.829 21.5374C195.821 21.5374 195.805 21.5374 195.797 21.5374Z" fill="#408F95"/>
<path d="M237.948 187.411C237.623 187.411 237.307 187.253 237.109 186.969C236.649 186.297 236.396 185.586 236.356 184.859C236.174 181.288 241.115 178.823 244.725 177.022C248.454 175.157 252.5 173.798 256.744 172.977C257.298 172.874 257.828 173.229 257.939 173.783C258.05 174.336 257.686 174.865 257.132 174.975C253.07 175.766 249.206 177.061 245.636 178.839C242.88 180.214 238.28 182.513 238.391 184.756C238.407 185.104 238.542 185.46 238.787 185.815C239.104 186.281 238.985 186.913 238.526 187.229C238.352 187.348 238.146 187.411 237.948 187.411Z" fill="#408F95"/>
<path d="M251.709 196.584C251.614 196.584 251.511 196.568 251.416 196.536C249.524 195.96 247.655 195.296 245.866 194.561C245.082 194.237 244.013 193.795 242.628 193.1C241.369 192.46 240.126 191.756 238.954 190.998C238.899 190.959 238.843 190.919 238.796 190.872C238.74 190.816 238.645 190.737 238.534 190.635C237.204 189.449 235.93 188.185 236.254 186.961C236.349 186.605 236.658 185.981 237.679 185.768C238.226 185.649 238.772 185.997 238.891 186.55C238.986 186.984 238.78 187.411 238.424 187.632C238.637 187.917 239.065 188.383 239.896 189.118C239.991 189.205 240.078 189.276 240.142 189.339C241.234 190.042 242.382 190.698 243.554 191.29C244.868 191.954 245.898 192.381 246.65 192.689C248.376 193.4 250.181 194.048 252.01 194.601C252.548 194.767 252.849 195.335 252.691 195.873C252.556 196.315 252.152 196.592 251.717 196.592L251.709 196.584Z" fill="#408F95"/>
<path d="M260.553 197.161C257.853 197.161 255.138 197.05 252.446 196.821C251.884 196.774 251.472 196.284 251.519 195.723C251.567 195.162 252.066 194.751 252.62 194.798C256.143 195.091 259.706 195.193 263.213 195.091C263.285 195.091 271.234 194.806 277.829 193.424C279.864 192.997 281.914 192.428 283.909 191.717C284.796 191.401 285.279 191.204 287.306 190.366L289.752 189.355C290.441 189.07 291.051 188.81 291.613 188.573C293.386 187.822 294.669 187.277 296.205 186.882C298.295 186.337 300.504 186.084 302.784 186.139C303.347 186.155 303.79 186.621 303.782 187.182C303.766 187.743 303.315 188.186 302.737 188.178C300.647 188.13 298.628 188.359 296.72 188.849C295.326 189.213 294.107 189.726 292.413 190.445C291.843 190.69 291.225 190.951 290.528 191.235L288.082 192.246C286.071 193.076 285.532 193.297 284.59 193.629C282.508 194.364 280.37 194.964 278.248 195.407C271.471 196.821 263.609 197.105 263.277 197.113C262.374 197.137 261.464 197.153 260.561 197.153L260.553 197.161Z" fill="#408F95"/>
<path d="M303.757 180.822C303.757 180.822 303.733 180.822 303.718 180.822C303.148 180.799 302.57 180.743 302.007 180.664C300.669 180.467 299.664 180.143 299.228 180.001L299.11 179.961C294.613 178.578 290.005 177.37 285.421 176.382C281.201 175.473 277.867 174.755 273.481 174.352C268.849 173.925 264.131 173.957 259.452 174.446C258.889 174.502 258.391 174.099 258.335 173.538C258.28 172.977 258.684 172.479 259.246 172.424C264.059 171.926 268.913 171.894 273.671 172.329C278.184 172.74 281.573 173.475 285.856 174.399C290.503 175.402 295.167 176.619 299.719 178.025L299.87 178.073C300.25 178.199 301.144 178.484 302.316 178.657C302.775 178.729 303.243 178.768 303.702 178.792C304.454 178.657 305.206 178.468 305.934 178.223C306.821 177.931 307.447 177.63 307.684 177.52C310.099 176.39 315.657 174.32 320.479 172.929C323.202 172.139 325.292 171.681 327.897 171.642C328.681 171.626 329.481 171.657 330.257 171.729C330.819 171.776 331.23 172.274 331.183 172.835C331.135 173.396 330.637 173.806 330.075 173.759C329.362 173.696 328.642 173.672 327.921 173.68C325.554 173.712 323.606 174.146 321.049 174.889C315.831 176.398 310.527 178.444 308.579 179.353C308.286 179.487 307.581 179.819 306.584 180.151C305.721 180.435 304.834 180.656 303.939 180.814C303.884 180.822 303.828 180.83 303.765 180.83L303.757 180.822Z" fill="#408F95"/>
<path d="M327.226 199.475C327.091 199.475 326.948 199.444 326.814 199.388L315.571 194.419C313.505 193.384 311.502 192.278 309.57 191.116C308.121 190.247 306.664 189.315 305.263 188.367C304.796 188.051 304.677 187.419 304.994 186.953C305.31 186.487 305.944 186.368 306.411 186.684C307.788 187.616 309.206 188.525 310.623 189.378C312.515 190.516 314.479 191.598 316.45 192.586L327.645 197.532C328.16 197.761 328.389 198.361 328.168 198.875C328.001 199.254 327.629 199.483 327.234 199.483L327.226 199.475Z" fill="#408F95"/>
<path d="M327.226 199.475C326.933 199.475 326.648 199.349 326.45 199.112C324.391 196.679 322.792 193.992 321.691 191.132C320.765 188.731 320.037 186.834 320.345 184.346C320.694 181.533 322.166 179.669 324.027 177.306L324.185 177.101C325.713 175.157 327.519 173.419 329.553 171.926C330.005 171.594 330.646 171.689 330.978 172.139C331.311 172.59 331.216 173.23 330.765 173.561C328.88 174.952 327.202 176.564 325.793 178.357L325.634 178.563C323.908 180.759 322.657 182.347 322.372 184.599C322.127 186.582 322.713 188.099 323.599 190.398C324.621 193.044 326.109 195.533 328.017 197.801C328.382 198.227 328.326 198.875 327.899 199.231C327.709 199.389 327.471 199.468 327.241 199.468L327.226 199.475Z" fill="#408F95"/>
<path d="M258.811 191.101C256.476 191.101 254.67 190.224 253.736 189.655C253.261 189.362 253.111 188.73 253.404 188.256C253.697 187.782 254.322 187.632 254.805 187.924C255.644 188.438 257.386 189.268 259.619 189.023C261.852 188.778 263.229 187.601 264.148 186.818C264.282 186.708 264.385 186.605 264.472 186.526C263.926 186.4 262.984 186.321 261.646 186.289C259.413 186.234 257.117 186.494 254.821 187.047C254.275 187.182 253.72 186.842 253.586 186.297C253.451 185.752 253.792 185.199 254.338 185.064C256.808 184.464 259.286 184.187 261.693 184.243C264.274 184.306 266.436 184.48 266.792 185.981C267.006 186.897 266.246 187.695 265.47 188.359C264.496 189.189 262.691 190.721 259.84 191.037C259.484 191.077 259.144 191.093 258.811 191.093V191.101Z" fill="#408F95"/>
<path d="M249.793 193.463C249.493 193.463 249.192 193.329 248.986 193.068C248.638 192.626 248.725 191.986 249.168 191.638C250.783 190.39 252.05 188.857 252.945 187.095C253.42 186.163 253.776 185.167 254.013 184.133C254.14 183.587 254.686 183.248 255.233 183.374C255.779 183.5 256.119 184.046 255.993 184.591C255.716 185.784 255.304 186.929 254.758 188.012C253.728 190.05 252.264 191.812 250.411 193.25C250.229 193.392 250.007 193.463 249.786 193.463H249.793Z" fill="#408F95"/>
<path d="M243.577 184.116C243.577 184.116 243.561 184.116 243.546 184.116C242.461 184.101 241.582 183.2 241.598 182.118C241.614 181.027 242.485 180.158 243.601 180.174C244.131 180.174 244.622 180.395 244.987 180.774C245.351 181.154 245.549 181.651 245.541 182.173C245.525 183.247 244.638 184.116 243.569 184.116H243.577ZM243.514 182.141C243.514 182.141 243.538 182.197 243.577 182.204C243.609 182.204 243.641 182.173 243.641 182.141H243.514ZM243.514 182.141H243.641C243.641 182.141 243.601 182.054 243.577 182.078C243.546 182.078 243.514 182.102 243.514 182.141Z" fill="#408F95"/>
<path d="M269.548 201C268.131 201 266.713 200.866 265.32 200.598C260.229 199.626 257.371 198.559 252.636 196.789C252.106 196.592 251.845 196.007 252.043 195.478C252.241 194.949 252.826 194.688 253.357 194.885C258.155 196.679 260.791 197.658 265.708 198.599C266.983 198.844 268.249 198.962 269.58 198.962C270.522 198.962 271.472 198.891 272.406 198.765C272.984 198.686 273.515 198.504 273.823 198.354C273.427 197.99 272.438 197.327 270.411 196.458C269.896 196.236 269.651 195.636 269.88 195.122C270.102 194.609 270.704 194.364 271.218 194.593C275.779 196.545 276.199 197.793 276.009 198.749C275.708 200.242 273.396 200.684 272.699 200.779C271.662 200.921 270.569 200.993 269.564 201H269.548Z" fill="#408F95"/>
<path d="M290.433 197.769C290.069 197.769 289.705 197.761 289.34 197.745C285.809 197.587 282.27 196.623 279.111 194.964C278.612 194.704 278.422 194.087 278.684 193.59C278.945 193.092 279.562 192.902 280.061 193.163C282.959 194.68 286.197 195.565 289.435 195.707C291.724 195.81 294.012 195.557 296.236 194.956C295.951 194.087 295.492 193.123 294.867 192.499C294.613 192.246 294.241 191.867 293.632 191.607C293.449 191.528 293.315 191.488 293.006 191.385L292.753 191.306C292.024 191.077 291.438 190.88 291.043 190.745C290.512 190.564 290.227 189.987 290.409 189.45C290.591 188.92 291.169 188.636 291.708 188.818C292.088 188.952 292.666 189.142 293.37 189.371L293.624 189.45C294.043 189.584 294.217 189.639 294.463 189.75C295.413 190.169 296.023 190.777 296.316 191.069C297.788 192.547 298.342 194.798 298.477 195.454C298.58 195.968 298.287 196.473 297.788 196.631C295.397 197.39 292.927 197.769 290.441 197.769H290.433Z" fill="#408F95"/>
<path d="M293.442 178.294C292.904 178.294 292.453 177.867 292.421 177.322C292.397 176.761 292.833 176.287 293.395 176.255C294.392 176.208 295.271 176.129 296.087 176.003C296.641 175.924 297.163 176.303 297.243 176.856C297.322 177.409 296.942 177.93 296.387 178.009C295.501 178.144 294.551 178.231 293.49 178.278C293.474 178.278 293.458 178.278 293.442 178.278V178.294Z" fill="#408F95"/>
<path d="M296.237 178.033C295.706 178.033 295.255 177.622 295.223 177.085C295.184 176.524 295.611 176.042 296.173 176.002C298.794 175.837 300.108 174.983 300.219 174.264C300.322 173.601 299.412 172.487 297.171 171.594C296.648 171.388 296.395 170.796 296.601 170.274C296.807 169.753 297.401 169.5 297.923 169.706C300.916 170.891 302.531 172.708 302.23 174.58C301.921 176.524 299.704 177.812 296.3 178.025C296.276 178.025 296.253 178.025 296.237 178.025V178.033Z" fill="#408F95"/>
<path d="M262.406 171.618C261.939 171.618 261.52 171.294 261.417 170.828C261.29 170.283 261.638 169.737 262.185 169.611C270.696 167.691 279.286 167.146 287.726 167.991C290.093 168.228 292.484 168.576 294.828 169.034C295.382 169.145 295.739 169.674 295.636 170.227C295.525 170.78 294.994 171.136 294.44 171.033C292.16 170.591 289.832 170.251 287.52 170.014C279.302 169.192 270.925 169.722 262.636 171.594C262.557 171.61 262.486 171.618 262.414 171.618H262.406Z" fill="#408F95"/>
<path d="M250.252 176.808C249.919 176.808 249.595 176.643 249.397 176.35C249.088 175.876 249.223 175.252 249.69 174.944C251.107 174.019 252.595 173.174 254.116 172.447C255.564 171.744 257.085 171.128 258.621 170.614C258.977 170.496 259.286 170.393 259.499 170.33C260.03 170.164 260.608 170.464 260.774 170.994C260.94 171.531 260.639 172.1 260.109 172.266C259.903 172.329 259.618 172.424 259.278 172.534C257.821 173.024 256.388 173.609 255.01 174.272C253.569 174.968 252.16 175.766 250.814 176.643C250.64 176.753 250.45 176.808 250.26 176.808H250.252Z" fill="#408F95"/>
<path d="M265.818 171.847C265.66 171.847 265.509 171.784 265.398 171.657C265.193 171.428 265.216 171.073 265.446 170.867C265.557 170.772 265.723 170.63 265.929 170.464C266.705 169.856 267.56 169.358 268.478 168.971C269.183 168.671 269.935 168.442 270.695 168.292C270.996 168.228 271.297 168.426 271.352 168.734C271.408 169.042 271.218 169.334 270.909 169.39C270.22 169.524 269.547 169.729 268.914 169.998C268.09 170.346 267.314 170.804 266.618 171.341C266.436 171.483 266.285 171.618 266.182 171.705C266.079 171.799 265.945 171.847 265.81 171.847H265.818Z" fill="#408F95"/>
<path d="M271.123 171.681C270.941 171.681 270.759 171.586 270.648 171.42C270.482 171.16 270.553 170.812 270.814 170.646C270.933 170.567 271.107 170.457 271.321 170.33C272.121 169.848 272.984 169.398 273.862 169.011C274.551 168.703 275.248 168.434 275.953 168.197C276.246 168.102 276.562 168.26 276.665 168.552C276.76 168.845 276.602 169.161 276.309 169.264C275.644 169.485 274.971 169.745 274.322 170.038C273.482 170.409 272.667 170.836 271.899 171.294C271.693 171.412 271.527 171.523 271.416 171.594C271.321 171.657 271.218 171.681 271.115 171.681H271.123Z" fill="#408F95"/>
<path d="M277.829 171.689C277.655 171.689 277.488 171.61 277.377 171.46C277.195 171.215 277.243 170.859 277.496 170.678C277.615 170.591 277.781 170.464 277.995 170.322C278.787 169.785 279.642 169.319 280.544 168.924C281.241 168.624 281.962 168.363 282.69 168.165C282.991 168.078 283.3 168.26 283.379 168.56C283.458 168.861 283.284 169.169 282.983 169.248C282.31 169.429 281.637 169.666 280.988 169.951C280.149 170.314 279.357 170.749 278.62 171.247C278.423 171.381 278.264 171.491 278.161 171.57C278.058 171.642 277.947 171.681 277.829 171.681V171.689Z" fill="#408F95"/>
<path d="M290.789 193.321C290.789 193.321 290.733 193.321 290.71 193.321L286.189 192.697C285.88 192.657 285.666 192.373 285.714 192.065C285.753 191.756 286.046 191.543 286.347 191.591L290.868 192.215C291.177 192.254 291.39 192.539 291.343 192.847C291.303 193.123 291.066 193.329 290.789 193.329V193.321Z" fill="#408F95"/>
<path d="M319.863 192.397C319.712 192.397 319.554 192.357 319.411 192.262C318.05 191.401 316.838 190.342 315.825 189.118C314.463 187.482 313.188 185.942 313.355 183.919C313.529 181.857 315.104 180.546 316.775 179.155C318.145 178.017 319.688 177.117 321.375 176.493C321.81 176.327 322.293 176.548 322.459 176.983C322.626 177.417 322.404 177.899 321.969 178.065C320.464 178.626 319.079 179.432 317.859 180.443C316.347 181.699 315.152 182.695 315.033 184.061C314.922 185.397 315.888 186.566 317.115 188.043C318.018 189.134 319.095 190.074 320.314 190.848C320.71 191.093 320.821 191.614 320.575 192.01C320.417 192.262 320.14 192.397 319.863 192.397Z" fill="#408F95"/>
<path d="M344.794 157.989C344.334 157.989 343.923 157.681 343.804 157.214C343.606 156.424 343.614 155.674 343.836 154.978C344.912 151.565 350.407 150.973 354.413 150.546C358.562 150.096 362.829 150.23 367.089 150.933C367.643 151.028 368.023 151.55 367.928 152.103C367.833 152.656 367.319 153.035 366.756 152.94C362.679 152.261 358.594 152.142 354.635 152.569C351.579 152.901 346.456 153.454 345.783 155.595C345.68 155.927 345.68 156.306 345.783 156.725C345.918 157.27 345.585 157.823 345.039 157.957C344.96 157.981 344.873 157.989 344.794 157.989Z" fill="#408F95"/>
<path d="M354.485 171.364C354.271 171.364 354.049 171.293 353.867 171.159C352.291 169.966 350.779 168.694 349.354 167.375C348.729 166.798 347.874 166.008 346.828 164.878C345.87 163.843 344.96 162.753 344.121 161.631C344.081 161.576 344.049 161.52 344.018 161.457C343.986 161.386 343.931 161.283 343.859 161.149C343.02 159.577 342.268 157.949 343.004 156.906C343.218 156.606 343.725 156.132 344.754 156.282C345.308 156.361 345.696 156.883 345.617 157.436C345.554 157.878 345.213 158.21 344.802 158.289C344.897 158.629 345.142 159.213 345.665 160.201C345.728 160.311 345.775 160.414 345.815 160.485C346.599 161.528 347.446 162.539 348.333 163.495C349.322 164.57 350.146 165.328 350.748 165.881C352.117 167.153 353.59 168.378 355.11 169.539C355.561 169.879 355.641 170.519 355.3 170.961C355.102 171.222 354.793 171.364 354.492 171.364H354.485Z" fill="#408F95"/>
<path d="M405.26 181.248C405.133 181.248 405.006 181.225 404.88 181.177C402.94 180.403 400.96 179.913 399.005 179.716C397.572 179.573 396.242 179.629 394.405 179.716C393.787 179.747 393.114 179.771 392.37 179.802L389.718 179.897C387.548 179.976 386.97 180 385.973 179.976C383.764 179.937 381.555 179.755 379.409 179.431C372.569 178.404 365.095 175.931 364.778 175.821C361.389 174.675 358.009 173.308 354.731 171.775C354.224 171.538 354.002 170.93 354.24 170.424C354.477 169.919 355.087 169.698 355.594 169.935C358.8 171.444 362.102 172.771 365.419 173.893C365.491 173.916 373.036 176.413 379.702 177.416C381.761 177.725 383.883 177.898 385.997 177.938C386.939 177.954 387.453 177.938 389.639 177.859L392.299 177.764C393.035 177.74 393.7 177.709 394.318 177.677C396.242 177.59 397.635 177.527 399.211 177.685C401.356 177.898 403.518 178.436 405.64 179.281C406.162 179.486 406.415 180.079 406.21 180.6C406.051 180.995 405.671 181.24 405.26 181.24V181.248Z" fill="#408F95"/>
<path d="M435.978 177.258C435.827 177.258 435.685 177.227 435.542 177.164C434.901 176.855 434.228 176.579 433.555 176.342C431.322 175.544 429.351 175.275 426.691 175.078C421.275 174.675 415.583 174.754 413.445 174.928C413.12 174.951 412.336 175.023 411.291 174.983C410.389 174.951 409.478 174.849 408.584 174.683C408.512 174.667 408.441 174.651 408.378 174.62C407.847 174.398 407.333 174.146 406.834 173.877C405.646 173.229 404.823 172.573 404.467 172.289L404.364 172.21C400.627 169.35 396.731 166.616 392.781 164.096C389.146 161.773 386.272 159.94 382.298 158.036C378.102 156.029 373.668 154.418 369.115 153.24C368.569 153.098 368.245 152.545 368.387 152C368.53 151.455 369.084 151.131 369.63 151.273C374.317 152.482 378.878 154.141 383.185 156.203C387.27 158.163 390.192 160.019 393.881 162.382C397.879 164.933 401.83 167.699 405.607 170.598L405.733 170.693C406.05 170.938 406.778 171.523 407.816 172.091C408.219 172.313 408.639 172.518 409.067 172.7C409.819 172.834 410.595 172.921 411.363 172.945C412.289 172.976 412.986 172.921 413.247 172.897C415.907 172.676 421.837 172.676 426.841 173.047C429.676 173.261 431.789 173.545 434.244 174.422C434.988 174.683 435.716 174.991 436.421 175.323C436.928 175.568 437.142 176.168 436.904 176.682C436.73 177.045 436.366 177.258 435.986 177.258H435.978Z" fill="#408F95"/>
<path d="M424.261 200.344C424.007 200.344 423.746 200.249 423.548 200.052L414.744 191.488C413.168 189.797 411.68 188.067 410.271 186.305C409.21 184.977 408.18 183.611 407.191 182.228C406.866 181.77 406.977 181.138 407.428 180.814C407.887 180.49 408.521 180.6 408.845 181.051C409.811 182.402 410.817 183.745 411.854 185.041C413.232 186.763 414.688 188.454 416.193 190.073L424.957 198.606C425.361 199.001 425.369 199.641 424.973 200.044C424.775 200.249 424.506 200.352 424.245 200.352L424.261 200.344Z" fill="#408F95"/>
<path d="M424.261 200.344C423.841 200.344 423.453 200.083 423.303 199.672C422.226 196.678 421.664 193.597 421.632 190.531C421.601 187.956 421.585 185.925 422.741 183.705C424.055 181.193 426.082 179.952 428.647 178.388L428.869 178.254C430.975 176.966 433.279 175.963 435.709 175.267C436.248 175.109 436.818 175.425 436.968 175.963C437.127 176.5 436.81 177.069 436.272 177.219C434.015 177.859 431.885 178.791 429.938 179.984L429.716 180.118C427.325 181.58 425.599 182.631 424.554 184.645C423.628 186.415 423.651 188.043 423.675 190.508C423.707 193.344 424.229 196.196 425.227 198.985C425.417 199.514 425.14 200.099 424.609 200.289C424.498 200.328 424.38 200.352 424.269 200.352L424.261 200.344Z" fill="#408F95"/>
<path d="M365.878 169.208C365.197 169.208 364.461 169.129 363.685 168.939C360.914 168.244 359.22 166.498 358.452 165.51C358.103 165.068 358.183 164.428 358.626 164.08C359.069 163.733 359.711 163.812 360.059 164.254C360.669 165.028 362.007 166.411 364.184 166.956C366.361 167.501 368.071 166.877 369.196 166.466C369.362 166.403 369.497 166.356 369.607 166.3C369.14 165.992 368.277 165.589 367.034 165.1C364.968 164.278 362.727 163.717 360.376 163.44C359.814 163.377 359.418 162.872 359.481 162.311C359.544 161.75 360.051 161.347 360.613 161.418C363.139 161.718 365.562 162.318 367.794 163.211C370.193 164.167 372.157 165.084 371.967 166.609C371.856 167.541 370.858 168.023 369.892 168.37C369.029 168.686 367.628 169.2 365.87 169.2L365.878 169.208Z" fill="#408F95"/>
<path d="M353.78 167.778C353.345 167.778 352.941 167.501 352.806 167.067C352.64 166.53 352.933 165.961 353.471 165.795C355.419 165.186 357.145 164.191 358.602 162.848C359.37 162.137 360.059 161.331 360.644 160.446C360.953 159.98 361.587 159.846 362.054 160.154C362.521 160.462 362.656 161.094 362.347 161.56C361.674 162.579 360.882 163.512 359.995 164.333C358.317 165.882 356.33 167.027 354.089 167.73C353.986 167.762 353.883 167.778 353.78 167.778Z" fill="#408F95"/>
<path d="M351.556 156.914C351.31 156.914 351.073 156.867 350.843 156.78C349.83 156.385 349.323 155.239 349.719 154.228C350.115 153.217 351.263 152.711 352.276 153.106C353.289 153.501 353.796 154.647 353.4 155.658C353.21 156.148 352.838 156.535 352.355 156.748C352.102 156.859 351.833 156.914 351.563 156.914H351.556ZM351.492 154.923C351.476 154.955 351.492 154.994 351.532 155.002C351.556 155.01 351.603 154.994 351.611 154.963L351.492 154.915V154.923ZM351.492 154.923L351.611 154.971C351.611 154.971 351.611 154.9 351.571 154.892C351.54 154.884 351.5 154.9 351.492 154.931V154.923Z" fill="#408F95"/>
<path d="M373.874 182.71C373.217 182.71 372.616 182.599 372.323 182.536C371.309 182.315 370.304 182.023 369.338 181.659C368 181.169 366.709 180.537 365.49 179.803C361.056 177.124 358.752 175.125 354.928 171.823C354.501 171.452 354.453 170.812 354.825 170.385C355.197 169.958 355.839 169.911 356.266 170.282C360.138 173.624 362.268 175.473 366.551 178.064C367.659 178.736 368.839 179.305 370.05 179.755C370.929 180.079 371.848 180.348 372.766 180.553C373.336 180.679 373.898 180.695 374.239 180.656C374.001 180.174 373.297 179.21 371.705 177.693C371.301 177.306 371.286 176.658 371.673 176.255C372.061 175.852 372.711 175.836 373.114 176.224C376.701 179.645 376.661 180.956 376.147 181.786C375.688 182.52 374.745 182.718 373.89 182.718L373.874 182.71Z" fill="#408F95"/>
<path d="M397.349 187.371C397.349 187.371 397.317 187.371 397.301 187.371C394.427 187.229 391.632 186.597 388.996 185.483C385.742 184.108 382.765 181.975 380.382 179.32C380.01 178.902 380.041 178.262 380.461 177.882C380.881 177.503 381.522 177.543 381.902 177.961C384.087 180.395 386.819 182.346 389.796 183.61C391.91 184.503 394.134 185.064 396.43 185.27C396.462 184.487 396.415 183.389 396.003 182.496C395.852 182.173 395.631 181.691 395.164 181.224C395.021 181.09 394.91 181.003 394.657 180.806L394.443 180.64C393.841 180.174 393.358 179.779 393.042 179.518C392.606 179.162 392.543 178.522 392.899 178.088C393.255 177.653 393.897 177.59 394.332 177.946C394.641 178.198 395.116 178.586 395.702 179.036L395.908 179.202C396.256 179.471 396.399 179.589 396.589 179.771C397.333 180.498 397.689 181.28 397.863 181.651C398.726 183.539 398.465 185.846 398.362 186.51C398.283 187.008 397.855 187.371 397.357 187.371H397.349Z" fill="#408F95"/>
<path d="M402.701 169.469C402.629 169.469 402.558 169.469 402.487 169.445C401.616 169.263 400.69 169.01 399.676 168.686C399.138 168.513 398.845 167.944 399.019 167.407C399.193 166.869 399.763 166.577 400.302 166.751C401.252 167.051 402.107 167.288 402.914 167.454C403.469 167.572 403.817 168.11 403.698 168.663C403.595 169.145 403.176 169.469 402.701 169.469Z" fill="#408F95"/>
<path d="M405.551 169.942C404.617 169.942 403.564 169.776 402.408 169.429C401.869 169.271 401.56 168.702 401.727 168.165C401.885 167.627 402.455 167.319 402.993 167.485C405.511 168.236 407.039 167.896 407.396 167.264C407.728 166.679 407.261 165.313 405.472 163.709C405.052 163.33 405.02 162.69 405.392 162.271C405.773 161.852 406.414 161.82 406.833 162.192C409.224 164.341 410.103 166.608 409.169 168.26C408.544 169.366 407.261 169.942 405.551 169.942Z" fill="#408F95"/>
<path d="M403.635 162.358C403.453 162.358 403.271 162.31 403.105 162.208C401.117 160.999 399.059 159.869 396.977 158.85C389.558 155.223 381.53 152.806 373.098 151.676C372.544 151.605 372.148 151.091 372.227 150.531C372.306 149.977 372.813 149.582 373.375 149.661C382.021 150.823 390.263 153.304 397.879 157.025C400.017 158.068 402.139 159.229 404.174 160.477C404.656 160.77 404.807 161.394 404.514 161.876C404.324 162.192 403.984 162.366 403.643 162.366L403.635 162.358Z" fill="#408F95"/>
<path d="M360.027 152.324C359.56 152.324 359.141 152.008 359.038 151.534C358.911 150.989 359.259 150.444 359.806 150.317C361.453 149.946 363.147 149.669 364.825 149.511C366.433 149.361 368.064 149.306 369.687 149.361C370.067 149.369 370.383 149.385 370.613 149.401C371.175 149.432 371.603 149.906 371.579 150.467C371.555 151.028 371.064 151.455 370.51 151.431C370.296 151.423 369.995 151.408 369.631 151.392C368.095 151.344 366.543 151.392 365.023 151.542C363.424 151.692 361.825 151.945 360.265 152.3C360.186 152.316 360.115 152.324 360.035 152.324H360.027Z" fill="#408F95"/>
<path d="M376.187 153.059C375.965 153.059 375.752 152.924 375.664 152.703C375.554 152.411 375.696 152.087 375.989 151.976C376.132 151.921 376.337 151.85 376.583 151.771C377.517 151.471 378.499 151.297 379.496 151.257C380.264 151.226 381.048 151.265 381.816 151.392C382.125 151.439 382.331 151.731 382.283 152.032C382.236 152.34 381.943 152.537 381.642 152.498C380.953 152.387 380.249 152.348 379.56 152.379C378.665 152.419 377.778 152.577 376.939 152.845C376.717 152.917 376.535 152.988 376.409 153.035C376.345 153.059 376.274 153.075 376.211 153.075L376.187 153.059Z" fill="#408F95"/>
<path d="M381.223 154.75C380.961 154.75 380.732 154.568 380.676 154.307C380.613 154.007 380.803 153.707 381.104 153.644C381.238 153.612 381.444 153.572 381.69 153.525C382.608 153.351 383.566 153.233 384.54 153.17C385.292 153.122 386.044 153.106 386.781 153.13C387.089 153.138 387.335 153.399 387.327 153.707C387.319 154.015 387.042 154.236 386.749 154.252C386.044 154.228 385.332 154.244 384.611 154.284C383.693 154.339 382.774 154.457 381.903 154.623C381.674 154.671 381.476 154.71 381.349 154.734C381.31 154.742 381.27 154.75 381.23 154.75H381.223Z" fill="#408F95"/>
<path d="M387.5 157.088C387.255 157.088 387.033 156.93 386.962 156.685C386.875 156.385 387.049 156.077 387.342 155.99C387.484 155.951 387.682 155.895 387.936 155.832C388.862 155.603 389.828 155.461 390.81 155.413C391.57 155.374 392.338 155.382 393.082 155.453C393.391 155.476 393.62 155.753 393.589 156.061C393.557 156.369 393.28 156.598 392.979 156.567C392.282 156.504 391.57 156.496 390.865 156.535C389.955 156.583 389.052 156.717 388.197 156.93C387.967 156.986 387.777 157.041 387.651 157.072C387.595 157.088 387.548 157.096 387.492 157.096L387.5 157.088Z" fill="#408F95"/>
<path d="M392.093 181.872C392.006 181.872 391.911 181.849 391.824 181.801L387.809 179.644C387.54 179.494 387.437 179.155 387.58 178.886C387.73 178.617 388.071 178.515 388.34 178.657L392.354 180.814C392.623 180.964 392.726 181.304 392.584 181.572C392.481 181.762 392.291 181.864 392.093 181.864V181.872Z" fill="#408F95"/>
<path d="M419.771 191.14C419.518 191.14 419.264 191.029 419.098 190.808C418.124 189.528 417.356 188.114 416.834 186.613C416.129 184.614 415.472 182.718 416.335 180.885C417.222 179.013 419.153 178.325 421.204 177.606C422.882 177.014 424.648 176.713 426.445 176.706C426.912 176.706 427.285 177.077 427.285 177.543C427.285 178.009 426.912 178.38 426.445 178.388C424.838 178.388 423.263 178.665 421.766 179.194C419.906 179.85 418.441 180.364 417.855 181.604C417.285 182.821 417.784 184.251 418.417 186.068C418.884 187.403 419.565 188.659 420.436 189.805C420.721 190.176 420.642 190.698 420.278 190.982C420.127 191.101 419.945 191.156 419.771 191.156V191.14Z" fill="#408F95"/>
<path d="M231.368 89.601C231.012 89.601 230.655 89.4272 230.442 89.1111C229.824 88.2184 229.491 87.2782 229.444 86.3143C229.199 81.5107 236.015 78.1135 240.988 75.6327C246.189 73.0413 251.826 71.1451 257.733 69.9995C258.342 69.881 258.928 70.276 259.047 70.8844C259.166 71.4927 258.77 72.0774 258.16 72.1959C252.452 73.302 247.005 75.1349 241.993 77.6315C238.074 79.5909 231.518 82.8617 231.685 86.2037C231.708 86.741 231.914 87.294 232.294 87.847C232.643 88.3606 232.516 89.0558 232.001 89.4035C231.811 89.5378 231.59 89.601 231.368 89.601Z" fill="#408F95"/>
<path d="M250.624 102.439C250.513 102.439 250.402 102.424 250.299 102.392C247.663 101.594 245.058 100.662 242.556 99.6347C241.463 99.1844 239.967 98.5681 238.043 97.5964C236.285 96.7115 234.567 95.7239 232.921 94.6652C232.857 94.6257 232.802 94.5783 232.746 94.5309C232.667 94.4519 232.533 94.3334 232.374 94.1912C230.577 92.5953 228.859 90.9045 229.271 89.3481C229.382 88.9215 229.762 88.163 231.028 87.8944C231.63 87.768 232.232 88.1472 232.358 88.7556C232.485 89.3402 232.121 89.917 231.551 90.0671C231.765 90.4621 232.374 91.1811 233.863 92.5163C234.005 92.6427 234.124 92.7533 234.219 92.8323C235.771 93.8278 237.394 94.7521 239.049 95.5896C240.893 96.5219 242.342 97.1223 243.403 97.5569C245.834 98.5602 248.375 99.4609 250.941 100.243C251.534 100.425 251.867 101.049 251.685 101.641C251.534 102.123 251.091 102.439 250.608 102.439H250.624Z" fill="#408F95"/>
<path d="M262.998 103.245C259.229 103.245 255.437 103.087 251.676 102.771C251.059 102.716 250.6 102.179 250.655 101.562C250.702 100.946 251.249 100.488 251.866 100.543C256.815 100.962 261.811 101.096 266.727 100.954C266.83 100.954 277.978 100.551 287.241 98.6154C290.107 98.015 292.989 97.2091 295.792 96.2215C297.043 95.7791 297.716 95.5026 300.55 94.3333L303.986 92.9191C304.944 92.524 305.799 92.1606 306.591 91.8288C309.069 90.778 310.859 90.0274 312.988 89.4665C315.886 88.708 318.95 88.3683 322.117 88.4394C322.735 88.4552 323.226 88.9687 323.21 89.585C323.194 90.2012 322.656 90.6753 322.062 90.6753C319.109 90.6042 316.25 90.9281 313.559 91.6313C311.587 92.1448 309.861 92.8796 307.47 93.8829C306.678 94.2227 305.815 94.5861 304.849 94.9811L301.413 96.3953C298.611 97.5567 297.858 97.8649 296.544 98.3231C293.646 99.3423 290.669 100.18 287.7 100.796C278.239 102.771 266.909 103.174 266.791 103.182C265.532 103.221 264.265 103.237 262.99 103.237L262.998 103.245Z" fill="#408F95"/>
<path d="M323.495 80.3808C323.495 80.3808 323.463 80.3808 323.448 80.3808C322.656 80.3492 321.864 80.2781 321.088 80.1596C319.235 79.891 317.842 79.4406 317.248 79.2431L317.074 79.1878C310.764 77.2443 304.311 75.5614 297.882 74.1709C291.968 72.891 287.289 71.8876 281.129 71.3188C274.629 70.7262 267.994 70.7657 261.423 71.4452C260.805 71.5163 260.251 71.066 260.188 70.4497C260.124 69.8335 260.568 69.2804 261.185 69.2172C267.899 68.522 274.676 68.4824 281.327 69.0829C287.621 69.6596 292.356 70.6788 298.349 71.9745C304.842 73.3729 311.366 75.0795 317.731 77.0388L317.937 77.102C318.475 77.2758 319.742 77.6867 321.405 77.9316C322.07 78.0264 322.743 78.0975 323.416 78.1212C324.501 77.9316 325.577 77.663 326.622 77.3154C327.873 76.8966 328.768 76.4779 329.108 76.3199C332.473 74.7476 340.24 71.856 346.97 69.9125C350.763 68.8143 353.66 68.1743 357.271 68.1269C358.363 68.1111 359.464 68.1506 360.54 68.2454C361.158 68.3007 361.617 68.8459 361.562 69.4621C361.506 70.0784 360.968 70.5366 360.343 70.4813C359.337 70.3944 358.316 70.3628 357.294 70.3707C353.945 70.4181 351.198 71.0265 347.588 72.0693C340.264 74.1867 332.814 77.0625 330.082 78.3345C329.679 78.5242 328.697 78.9824 327.319 79.4406C326.124 79.8357 324.896 80.1438 323.661 80.3571C323.598 80.365 323.535 80.3729 323.471 80.3729L323.495 80.3808Z" fill="#408F95"/>
<path d="M356.353 106.492C356.203 106.492 356.044 106.461 355.902 106.398L340.162 99.445C337.296 98.007 334.493 96.4585 331.786 94.8389C329.751 93.6143 327.724 92.3186 325.768 90.9913C325.254 90.6437 325.127 89.9484 325.475 89.4349C325.824 88.9213 326.521 88.787 327.035 89.1425C328.959 90.4461 330.946 91.7181 332.949 92.919C335.61 94.515 338.357 96.0319 341.128 97.4224L356.812 104.351C357.382 104.604 357.636 105.26 357.382 105.829C357.2 106.247 356.789 106.492 356.353 106.492Z" fill="#408F95"/>
<path d="M356.353 106.493C356.036 106.493 355.72 106.358 355.498 106.098C352.64 102.716 350.415 98.987 348.887 95.013C347.604 91.6868 346.599 89.0638 347.019 85.6586C347.502 81.8031 349.536 79.2196 352.109 75.9487L352.331 75.6643C354.453 72.9702 356.955 70.5526 359.789 68.4747C360.288 68.1113 360.993 68.214 361.357 68.7118C361.721 69.2095 361.618 69.9127 361.119 70.2761C358.451 72.2354 356.092 74.5108 354.097 77.0469L353.875 77.3313C351.421 80.4442 349.647 82.6959 349.243 85.9351C348.887 88.7794 349.718 90.9362 350.977 94.2071C352.418 97.952 354.516 101.468 357.216 104.652C357.612 105.126 357.557 105.829 357.082 106.232C356.868 106.406 356.614 106.493 356.361 106.493H356.353Z" fill="#408F95"/>
<path d="M260.568 94.7681C257.369 94.7681 254.899 93.5672 253.624 92.785C253.094 92.4611 252.935 91.7737 253.26 91.2444C253.585 90.715 254.273 90.5491 254.804 90.8809C256.015 91.6236 258.525 92.8166 261.731 92.4611C264.946 92.1055 266.925 90.4148 268.24 89.3008C268.659 88.9453 268.913 88.6846 269.063 88.5108C268.533 88.3053 267.297 88.0999 264.55 88.0288C261.407 87.9577 258.161 88.3132 254.915 89.1033C254.313 89.2534 253.703 88.8821 253.561 88.2816C253.41 87.6812 253.782 87.0728 254.384 86.9306C257.82 86.0932 261.264 85.7139 264.606 85.7929C267.962 85.8719 271.011 86.1011 271.462 87.9893C271.676 88.89 271.169 89.7669 269.704 91.0152C268.279 92.2319 265.888 94.2624 261.985 94.6969C261.502 94.7523 261.027 94.776 260.576 94.776L260.568 94.7681Z" fill="#408F95"/>
<path d="M247.939 98.0782C247.607 98.0782 247.274 97.928 247.053 97.6436C246.673 97.1538 246.76 96.4506 247.251 96.0714C249.547 94.2938 251.352 92.1211 252.627 89.6087C253.3 88.2814 253.814 86.8593 254.155 85.3976C254.297 84.7972 254.899 84.418 255.501 84.5602C256.102 84.7024 256.482 85.3028 256.34 85.9033C255.96 87.5466 255.382 89.1346 254.63 90.62C253.212 93.4326 251.194 95.8581 248.628 97.8411C248.422 97.9991 248.185 98.0782 247.939 98.0782Z" fill="#408F95"/>
<path d="M239.246 84.9869C239.246 84.9869 239.222 84.9869 239.206 84.9869C237.852 84.9711 236.76 83.8492 236.784 82.4982C236.799 81.1551 237.9 80.0806 239.246 80.0806C239.254 80.0806 239.27 80.0806 239.278 80.0806C240.631 80.0964 241.724 81.2183 241.7 82.5693C241.684 83.9124 240.584 84.9869 239.238 84.9869H239.246ZM239.246 82.3164C239.127 82.3164 239.032 82.4113 239.032 82.5298C239.032 82.6009 239.064 82.6562 239.095 82.6799C239.127 82.7115 239.175 82.7431 239.246 82.7431C239.357 82.7431 239.46 82.6483 239.468 82.5298C239.468 82.4113 239.373 82.3164 239.254 82.3085L239.246 82.3164Z" fill="#408F95"/>
<path d="M275.604 108.625C273.64 108.625 271.669 108.436 269.737 108.072C262.635 106.713 258.645 105.228 252.026 102.755C251.448 102.542 251.155 101.894 251.369 101.317C251.59 100.741 252.232 100.448 252.81 100.662C259.539 103.174 263.245 104.557 270.157 105.876C271.946 106.216 273.783 106.39 275.596 106.39H275.628C276.958 106.39 278.304 106.295 279.626 106.105C280.742 105.947 281.7 105.56 282.041 105.299C281.716 104.873 280.426 103.806 276.91 102.297C276.34 102.052 276.079 101.396 276.324 100.828C276.57 100.259 277.227 99.998 277.797 100.243C284.012 102.905 284.55 104.572 284.321 105.726C283.933 107.669 280.6 108.238 279.943 108.333C278.517 108.531 277.069 108.633 275.636 108.641H275.596L275.604 108.625Z" fill="#408F95"/>
<path d="M304.842 104.098C304.335 104.098 303.829 104.091 303.322 104.067C298.421 103.846 293.512 102.51 289.134 100.211C288.588 99.9269 288.374 99.2475 288.667 98.7023C288.952 98.1572 289.633 97.9439 290.179 98.2362C294.272 100.385 298.856 101.626 303.425 101.839C306.774 101.989 310.107 101.602 313.345 100.693C313.021 99.6109 312.379 97.9518 311.263 96.8299C310.915 96.4822 310.345 95.9055 309.442 95.5105C309.204 95.4078 309.022 95.3445 308.531 95.1944L308.183 95.0838C307.17 94.7599 306.346 94.4834 305.8 94.2938C305.214 94.0963 304.905 93.4563 305.103 92.8717C305.309 92.287 305.942 91.9789 306.528 92.1764C307.067 92.3581 307.866 92.6346 308.864 92.9507L309.212 93.0613C309.743 93.2272 310.004 93.3141 310.36 93.4642C311.643 94.033 312.435 94.8231 312.854 95.2418C314.857 97.2486 315.617 100.33 315.8 101.223C315.918 101.784 315.586 102.345 315.04 102.518C311.722 103.569 308.294 104.106 304.85 104.106L304.842 104.098Z" fill="#408F95"/>
<path d="M309.053 76.8335C308.46 76.8335 307.961 76.3674 307.929 75.7669C307.898 75.1507 308.381 74.6292 308.998 74.5976C310.399 74.5344 311.642 74.4159 312.798 74.25C313.408 74.1552 313.986 74.5818 314.073 75.1902C314.168 75.7985 313.741 76.3753 313.131 76.4622C311.904 76.6439 310.582 76.7703 309.101 76.8335C309.085 76.8335 309.069 76.8335 309.046 76.8335H309.053Z" fill="#408F95"/>
<path d="M312.964 76.47C312.379 76.47 311.888 76.0117 311.848 75.4192C311.808 74.8029 312.276 74.2657 312.893 74.2262C316.749 73.9813 318.657 72.7014 318.839 71.54C318.997 70.5366 317.929 68.8775 314.382 67.4791C313.804 67.2499 313.527 66.6021 313.748 66.0253C313.978 65.4486 314.627 65.1642 315.205 65.3933C319.251 66.9892 321.436 69.4226 321.048 71.8876C320.644 74.4553 317.644 76.1618 313.028 76.4621C313.004 76.4621 312.98 76.4621 312.956 76.4621L312.964 76.47Z" fill="#408F95"/>
<path d="M265.604 67.4871C265.089 67.4871 264.63 67.1316 264.511 66.618C264.377 66.0176 264.757 65.4171 265.359 65.2828C277.243 62.6045 289.237 61.846 301.019 63.0232C304.328 63.3551 307.661 63.8449 310.939 64.4769C311.549 64.5955 311.945 65.1801 311.826 65.7885C311.707 66.3968 311.121 66.7918 310.511 66.6733C307.305 66.0492 304.043 65.5672 300.797 65.2433C289.261 64.0898 277.504 64.8325 265.857 67.4634C265.77 67.4792 265.691 67.495 265.612 67.495L265.604 67.4871Z" fill="#408F95"/>
<path d="M248.59 74.7559C248.226 74.7559 247.861 74.5742 247.648 74.2502C247.307 73.7367 247.45 73.0414 247.972 72.7017C249.944 71.4139 252.018 70.2446 254.132 69.2254C256.159 68.2458 258.265 67.3925 260.403 66.6735C260.901 66.5076 261.329 66.3733 261.63 66.2785C262.216 66.0889 262.849 66.4207 263.031 67.0133C263.213 67.6058 262.889 68.2299 262.295 68.4117C262.01 68.4986 261.606 68.6329 261.123 68.7909C259.072 69.4783 257.054 70.3078 255.114 71.2401C253.079 72.2198 251.092 73.3417 249.207 74.5742C249.017 74.7006 248.804 74.7559 248.598 74.7559H248.59Z" fill="#408F95"/>
<path d="M270.102 69.004C269.872 69.004 269.634 68.9092 269.468 68.7196C269.159 68.372 269.191 67.8426 269.539 67.5345C269.698 67.3923 269.927 67.1948 270.22 66.9657C271.305 66.1124 272.508 65.4092 273.799 64.8641C274.797 64.4454 275.842 64.1214 276.918 63.9081C277.37 63.8133 277.813 64.1135 277.908 64.5718C277.995 65.03 277.702 65.4646 277.243 65.5594C276.285 65.749 275.351 66.0334 274.456 66.4126C273.3 66.9025 272.223 67.5345 271.257 68.293C270.996 68.4984 270.79 68.6722 270.648 68.7986C270.49 68.9408 270.292 69.0119 270.094 69.0119L270.102 69.004Z" fill="#408F95"/>
<path d="M277.813 67.9376C277.536 67.9376 277.267 67.8033 277.101 67.5505C276.847 67.1633 276.966 66.6419 277.354 66.3891C277.52 66.2785 277.766 66.1284 278.066 65.9466C279.191 65.2672 280.386 64.643 281.637 64.09C282.595 63.6634 283.585 63.2762 284.567 62.9523C285.01 62.8022 285.485 63.0392 285.635 63.4816C285.786 63.9241 285.548 64.3981 285.105 64.5482C284.171 64.8564 283.237 65.2277 282.326 65.6306C281.146 66.16 280.006 66.7446 278.945 67.3925C278.66 67.5663 278.431 67.7085 278.272 67.8112C278.13 67.8981 277.971 67.9455 277.821 67.9455L277.813 67.9376Z" fill="#408F95"/>
<path d="M287.194 67.9534C286.933 67.9534 286.68 67.8349 286.513 67.6136C286.236 67.2423 286.315 66.713 286.687 66.4364C286.854 66.3179 287.091 66.1441 287.384 65.9387C288.493 65.1882 289.696 64.5324 290.963 63.9794C291.945 63.5527 292.958 63.1972 293.971 62.9207C294.423 62.8022 294.882 63.0629 295.009 63.5053C295.135 63.9557 294.866 64.4139 294.423 64.5403C293.481 64.801 292.546 65.1328 291.644 65.52C290.472 66.0256 289.363 66.6419 288.342 67.3292C288.065 67.5109 287.851 67.6769 287.701 67.7875C287.55 67.8981 287.376 67.9534 287.202 67.9534H287.194Z" fill="#408F95"/>
<path d="M305.333 98.2365C305.333 98.2365 305.254 98.2365 305.215 98.2286L298.889 97.3517C298.429 97.2885 298.105 96.8618 298.168 96.4036C298.231 95.9454 298.659 95.6214 299.118 95.6846L305.444 96.5616C305.903 96.6248 306.228 97.0514 306.165 97.5097C306.109 97.9284 305.745 98.2365 305.333 98.2365Z" fill="#408F95"/>
<path d="M346.044 96.5454C345.893 96.5454 345.735 96.5059 345.592 96.4111C343.716 95.2181 342.045 93.7644 340.644 92.0737C338.791 89.8378 337.041 87.7283 337.263 85.0421C337.493 82.2927 339.654 80.4992 341.934 78.5952C343.819 77.023 345.949 75.7905 348.268 74.9214C348.704 74.7555 349.187 74.9767 349.353 75.4112C349.519 75.8458 349.298 76.3277 348.862 76.4936C346.717 77.2995 344.753 78.4372 343.011 79.883C340.834 81.7001 339.116 83.1301 338.942 85.1764C338.775 87.1832 340.169 88.866 341.934 90.9992C343.225 92.5556 344.753 93.8908 346.487 94.989C346.883 95.2339 346.994 95.7554 346.748 96.1504C346.59 96.4032 346.313 96.5375 346.036 96.5375L346.044 96.5454Z" fill="#408F95"/>
<path d="M96.4092 113.832C95.9975 113.832 95.6096 113.579 95.4591 113.177C95.1662 112.418 95.0949 111.668 95.2295 110.949C95.9025 107.433 101.286 106.208 105.213 105.308C109.283 104.375 113.535 104.012 117.849 104.209C118.412 104.233 118.847 104.715 118.823 105.276C118.8 105.837 118.325 106.256 117.754 106.248C113.622 106.05 109.56 106.406 105.673 107.291C102.672 107.978 97.6522 109.124 97.2326 111.328C97.1693 111.668 97.2168 112.047 97.3672 112.45C97.5652 112.971 97.3039 113.564 96.7734 113.761C96.6547 113.809 96.5359 113.824 96.4092 113.824V113.832Z" fill="#408F95"/>
<path d="M107.605 125.984C107.431 125.984 107.249 125.936 107.09 125.841C105.388 124.838 103.733 123.748 102.166 122.61C101.485 122.112 100.543 121.433 99.3631 120.422C98.2863 119.505 97.257 118.525 96.2911 117.514C96.2436 117.467 96.204 117.411 96.1644 117.356C96.1248 117.293 96.0536 117.19 95.9665 117.072C94.9531 115.602 94.0109 114.077 94.6205 112.963C94.7947 112.639 95.2381 112.102 96.2832 112.142C96.8453 112.158 97.2887 112.624 97.2729 113.185C97.257 113.627 96.9641 113.998 96.5603 114.125C96.6949 114.457 97.0037 115.002 97.6371 115.918C97.7083 116.021 97.7717 116.116 97.8192 116.187C98.7138 117.127 99.6797 118.036 100.677 118.881C101.802 119.837 102.696 120.493 103.353 120.967C104.866 122.065 106.465 123.116 108.112 124.087C108.595 124.372 108.753 124.996 108.468 125.478C108.278 125.802 107.938 125.976 107.589 125.976L107.605 125.984Z" fill="#408F95"/>
<path d="M134.976 131.103C134.454 131.103 133.939 131.095 133.425 131.079C126.505 130.858 118.801 129.278 118.476 129.207C114.969 128.464 111.462 127.508 108.026 126.363C107.495 126.181 107.202 125.612 107.384 125.075C107.566 124.546 108.136 124.253 108.675 124.435C112.032 125.557 115.476 126.489 118.896 127.216C118.967 127.232 126.758 128.828 133.496 129.049C135.578 129.12 137.708 129.049 139.806 128.828C140.748 128.733 141.263 128.654 143.432 128.314L146.045 127.911C146.773 127.801 147.43 127.69 148.032 127.595C149.932 127.287 151.31 127.058 152.893 127.034C155.047 126.995 157.264 127.279 159.465 127.864C160.011 128.006 160.328 128.567 160.185 129.112C160.043 129.657 159.481 129.973 158.934 129.831C156.915 129.294 154.896 129.033 152.925 129.065C151.484 129.088 150.17 129.302 148.357 129.602C147.747 129.705 147.082 129.807 146.346 129.926L143.741 130.329C141.587 130.661 141.001 130.755 140.012 130.85C138.341 131.016 136.655 131.103 134.984 131.103H134.976Z" fill="#408F95"/>
<path d="M163.083 122.989C162.671 122.989 162.251 122.974 161.84 122.95C161.769 122.95 161.697 122.934 161.634 122.91C161.088 122.752 160.541 122.563 160.011 122.349C158.752 121.844 157.857 121.291 157.469 121.054L157.366 120.99C153.321 118.581 149.132 116.329 144.912 114.283C141.025 112.402 137.961 110.917 133.788 109.495C129.386 107.994 124.794 106.912 120.131 106.272C119.577 106.193 119.181 105.687 119.26 105.126C119.339 104.573 119.846 104.17 120.408 104.257C125.206 104.905 129.925 106.019 134.454 107.567C138.737 109.029 141.856 110.538 145.799 112.45C150.075 114.52 154.318 116.803 158.412 119.237L158.546 119.316C158.887 119.529 159.686 120.019 160.779 120.461C161.206 120.635 161.65 120.785 162.093 120.919C162.861 120.967 163.637 120.959 164.397 120.896C165.331 120.817 166.012 120.682 166.266 120.627C168.878 120.098 174.769 119.402 179.781 119.181C182.615 119.063 184.753 119.102 187.286 119.679C188.054 119.853 188.814 120.074 189.559 120.319C190.089 120.501 190.374 121.077 190.2 121.607C190.018 122.136 189.44 122.42 188.909 122.247C188.236 122.018 187.54 121.82 186.835 121.662C184.523 121.133 182.536 121.093 179.868 121.212C174.444 121.449 168.799 122.183 166.693 122.61C166.384 122.673 165.616 122.831 164.563 122.918C164.072 122.958 163.574 122.981 163.083 122.981V122.989Z" fill="#408F95"/>
<path d="M180.294 146.604C180.08 146.604 179.858 146.533 179.676 146.391L169.93 138.909C168.172 137.416 166.486 135.867 164.879 134.279C163.675 133.086 162.48 131.846 161.34 130.59C160.96 130.171 160.991 129.531 161.411 129.152C161.831 128.772 162.472 128.804 162.852 129.223C163.968 130.455 165.132 131.664 166.312 132.833C167.879 134.382 169.534 135.899 171.213 137.329L180.919 144.779C181.363 145.119 181.45 145.759 181.109 146.209C180.911 146.47 180.603 146.604 180.302 146.604H180.294Z" fill="#408F95"/>
<path d="M180.302 146.604C179.929 146.604 179.565 146.399 179.391 146.043C177.966 143.191 177.048 140.205 176.652 137.163C176.319 134.611 176.058 132.596 176.953 130.25C177.958 127.603 179.827 126.134 182.194 124.277L182.4 124.119C184.339 122.594 186.509 121.33 188.844 120.351C189.367 120.129 189.961 120.374 190.175 120.896C190.388 121.417 190.151 122.01 189.628 122.223C187.467 123.124 185.456 124.301 183.659 125.707L183.453 125.865C181.252 127.595 179.66 128.844 178.853 130.961C178.14 132.826 178.354 134.445 178.671 136.887C179.035 139.699 179.89 142.472 181.212 145.119C181.465 145.625 181.26 146.233 180.753 146.486C180.61 146.557 180.452 146.596 180.302 146.596V146.604Z" fill="#408F95"/>
<path d="M117.739 122.571C117.367 122.571 116.979 122.547 116.583 122.5C113.749 122.136 111.856 120.595 110.978 119.711C110.582 119.308 110.582 118.668 110.985 118.273C111.389 117.878 112.031 117.878 112.426 118.281C113.123 118.984 114.612 120.2 116.844 120.485C119.069 120.777 120.692 119.956 121.769 119.41C121.927 119.331 122.054 119.26 122.157 119.205C121.658 118.952 120.756 118.66 119.465 118.312C117.311 117.735 115.023 117.443 112.656 117.443C112.094 117.443 111.635 116.985 111.635 116.424C111.635 115.863 112.094 115.405 112.656 115.405C115.205 115.405 117.668 115.721 119.995 116.345C122.489 117.017 124.548 117.688 124.54 119.237C124.54 120.169 123.645 120.746 122.687 121.228C121.706 121.717 120.003 122.579 117.739 122.579V122.571Z" fill="#408F95"/>
<path d="M106.48 122.507C106.092 122.507 105.72 122.286 105.546 121.907C105.316 121.393 105.546 120.793 106.061 120.564C107.921 119.726 109.521 118.541 110.803 117.04C111.484 116.242 112.07 115.357 112.545 114.417C112.798 113.911 113.408 113.714 113.915 113.967C114.421 114.22 114.619 114.828 114.366 115.334C113.82 116.424 113.139 117.443 112.355 118.367C110.874 120.106 109.038 121.472 106.892 122.428C106.757 122.492 106.615 122.515 106.472 122.515L106.48 122.507Z" fill="#408F95"/>
<path d="M102.887 111.984C102.721 111.984 102.554 111.96 102.388 111.921C101.335 111.652 100.694 110.57 100.971 109.519C101.105 109.005 101.422 108.579 101.881 108.318C102.341 108.049 102.871 107.978 103.378 108.105C103.892 108.239 104.32 108.555 104.589 109.013C104.858 109.464 104.93 110.001 104.803 110.506C104.668 111.012 104.352 111.447 103.892 111.707C103.584 111.889 103.243 111.984 102.895 111.984H102.887ZM102.887 109.953C102.887 109.953 102.831 109.977 102.823 110.001C102.823 110.032 102.839 110.072 102.871 110.08C102.911 110.088 102.942 110.064 102.95 110.032C102.958 110.001 102.942 109.961 102.903 109.953C102.903 109.953 102.903 109.953 102.895 109.953H102.887Z" fill="#408F95"/>
<path d="M127.517 135.022C127.192 135.022 126.923 134.998 126.749 134.982C125.719 134.88 124.682 134.706 123.677 134.461C122.299 134.129 120.937 133.655 119.639 133.071C114.928 130.929 112.402 129.215 108.214 126.379C107.747 126.063 107.628 125.431 107.945 124.964C108.261 124.498 108.895 124.38 109.362 124.696C113.598 127.564 115.933 129.144 120.486 131.222C121.666 131.759 122.909 132.186 124.16 132.486C125.07 132.707 126.012 132.865 126.946 132.96C127.524 133.015 128.087 132.968 128.419 132.897C128.126 132.446 127.311 131.569 125.553 130.25C125.102 129.91 125.015 129.278 125.347 128.828C125.688 128.378 126.321 128.291 126.772 128.622C130.739 131.593 130.85 132.905 130.438 133.789C129.955 134.832 128.498 135.022 127.509 135.022H127.517Z" fill="#408F95"/>
<path d="M150.422 136.926C148.126 136.926 145.862 136.602 143.653 135.962C140.256 134.974 137.05 133.205 134.374 130.85C133.954 130.479 133.914 129.839 134.287 129.412C134.659 128.994 135.3 128.954 135.727 129.325C138.182 131.482 141.119 133.102 144.231 134.011C146.44 134.65 148.72 134.943 151.016 134.887C150.961 134.113 150.778 133.015 150.272 132.178C150.09 131.877 149.812 131.419 149.282 131.016C149.124 130.898 149.005 130.827 148.728 130.661L148.498 130.526C147.849 130.131 147.319 129.799 146.97 129.578C146.495 129.278 146.361 128.646 146.661 128.172C146.962 127.698 147.596 127.564 148.071 127.864C148.411 128.085 148.918 128.401 149.559 128.788L149.781 128.923C150.153 129.152 150.311 129.246 150.525 129.404C151.356 130.036 151.8 130.771 152.014 131.127C153.098 132.912 153.098 135.227 153.074 135.891C153.059 136.412 152.647 136.831 152.124 136.871C151.554 136.91 150.992 136.926 150.422 136.926Z" fill="#408F95"/>
<path d="M155.267 118.462C155.267 118.462 155.204 118.462 155.172 118.462C154.277 118.383 153.335 118.241 152.29 118.043C151.736 117.933 151.38 117.403 151.483 116.85C151.593 116.297 152.132 115.942 152.678 116.045C153.66 116.234 154.531 116.361 155.354 116.44C155.916 116.487 156.328 116.985 156.28 117.546C156.233 118.075 155.79 118.47 155.267 118.47V118.462Z" fill="#408F95"/>
<path d="M157.238 118.652C156.573 118.652 155.853 118.589 155.085 118.454C154.53 118.36 154.158 117.83 154.261 117.277C154.356 116.724 154.887 116.353 155.441 116.455C158.03 116.914 159.503 116.392 159.788 115.729C160.049 115.112 159.431 113.809 157.46 112.418C157.001 112.094 156.89 111.462 157.214 111.004C157.539 110.546 158.172 110.435 158.632 110.759C161.26 112.616 162.392 114.765 161.664 116.511C161.078 117.909 159.479 118.66 157.238 118.66V118.652Z" fill="#408F95"/>
<path d="M155.354 111.296C155.212 111.296 155.069 111.265 154.927 111.201C152.813 110.23 150.635 109.353 148.442 108.586C140.652 105.853 132.386 104.391 123.883 104.249C123.32 104.241 122.869 103.775 122.877 103.214C122.885 102.653 123.368 102.203 123.914 102.211C132.639 102.353 141.119 103.854 149.115 106.659C151.364 107.449 153.604 108.349 155.774 109.345C156.288 109.582 156.51 110.182 156.273 110.696C156.098 111.067 155.734 111.288 155.346 111.288L155.354 111.296Z" fill="#408F95"/>
<path d="M110.875 106.43C110.456 106.43 110.06 106.169 109.917 105.75C109.727 105.221 110.004 104.636 110.535 104.455C112.126 103.886 113.773 103.427 115.428 103.072C117.003 102.732 118.626 102.495 120.242 102.353C120.622 102.321 120.938 102.298 121.16 102.282C121.73 102.242 122.205 102.669 122.245 103.23C122.276 103.791 121.857 104.273 121.295 104.312C121.081 104.328 120.78 104.344 120.424 104.375C118.896 104.51 117.36 104.739 115.863 105.063C114.296 105.395 112.736 105.837 111.224 106.374C111.113 106.414 110.994 106.43 110.883 106.43H110.875Z" fill="#408F95"/>
<path d="M127.059 105.268C126.861 105.268 126.663 105.158 126.56 104.968C126.418 104.691 126.52 104.36 126.798 104.21C126.932 104.138 127.122 104.044 127.368 103.933C128.262 103.53 129.212 103.238 130.202 103.08C130.962 102.953 131.738 102.914 132.522 102.945C132.831 102.961 133.068 103.222 133.06 103.53C133.044 103.838 132.791 104.075 132.474 104.067C131.778 104.036 131.073 104.075 130.384 104.186C129.497 104.328 128.642 104.589 127.835 104.952C127.621 105.047 127.447 105.134 127.328 105.197C127.241 105.245 127.154 105.26 127.067 105.26L127.059 105.268Z" fill="#408F95"/>
<path d="M132.259 106.35C132.03 106.35 131.808 106.208 131.729 105.971C131.626 105.679 131.784 105.363 132.077 105.26C132.212 105.213 132.41 105.149 132.647 105.07C133.542 104.794 134.476 104.557 135.434 104.383C136.17 104.249 136.923 104.146 137.659 104.083C137.96 104.051 138.237 104.288 138.268 104.596C138.292 104.905 138.063 105.173 137.754 105.205C137.057 105.268 136.345 105.363 135.64 105.489C134.729 105.655 133.835 105.876 132.988 106.137C132.758 106.208 132.576 106.271 132.449 106.311C132.386 106.335 132.33 106.342 132.267 106.342L132.259 106.35Z" fill="#408F95"/>
<path d="M138.769 107.946C138.547 107.946 138.341 107.82 138.254 107.607C138.135 107.322 138.27 106.99 138.555 106.872C138.69 106.817 138.888 106.738 139.125 106.651C140.02 106.319 140.962 106.066 141.928 105.892C142.68 105.766 143.44 105.687 144.192 105.663C144.501 105.663 144.762 105.9 144.77 106.208C144.778 106.516 144.533 106.777 144.224 106.785C143.527 106.809 142.815 106.88 142.118 106.998C141.215 107.156 140.344 107.393 139.513 107.701C139.291 107.78 139.109 107.859 138.99 107.907C138.919 107.938 138.848 107.954 138.777 107.954L138.769 107.946Z" fill="#408F95"/>
<path d="M146.241 132.019C146.17 132.019 146.099 132.004 146.036 131.98L141.792 130.305C141.507 130.194 141.364 129.863 141.475 129.578C141.586 129.294 141.918 129.152 142.204 129.262L146.447 130.937C146.732 131.048 146.875 131.38 146.764 131.664C146.677 131.885 146.463 132.019 146.241 132.019Z" fill="#408F95"/>
<path d="M174.776 137.984C174.554 137.984 174.332 137.898 174.166 137.724C173.042 136.562 172.123 135.251 171.427 133.821C170.492 131.917 169.614 130.115 170.263 128.188C170.92 126.22 172.765 125.32 174.72 124.364C176.32 123.582 178.03 123.076 179.819 122.855C180.286 122.799 180.698 123.123 180.753 123.59C180.809 124.048 180.484 124.467 180.017 124.522C178.426 124.711 176.89 125.17 175.465 125.865C173.699 126.734 172.298 127.413 171.862 128.717C171.435 129.989 172.1 131.356 172.947 133.078C173.564 134.35 174.388 135.519 175.385 136.554C175.71 136.886 175.694 137.424 175.362 137.74C175.195 137.898 174.989 137.977 174.776 137.977V137.984Z" fill="#408F95"/>
<path d="M25.0422 18.6058C24.8838 18.6058 24.7255 18.5663 24.5751 18.4952C20.9014 16.5991 17.0535 15.2323 13.1503 14.4264C10.1337 13.8023 5.09829 12.7594 3.79192 14.5923C3.59399 14.8767 3.47523 15.2402 3.44356 15.6668C3.40397 16.2277 2.91309 16.6465 2.35888 16.6149C1.79674 16.5754 1.36921 16.0934 1.40879 15.5325C1.46421 14.7187 1.70965 14.0077 2.12927 13.4151C4.20363 10.4998 9.6112 11.6217 13.562 12.4354C17.6473 13.2808 21.6615 14.7108 25.5093 16.6939C26.0081 16.9546 26.206 17.563 25.9448 18.0607C25.7627 18.4083 25.4064 18.6137 25.0422 18.6137V18.6058Z" fill="#408F95"/>
<path d="M7.53676 32.3135C7.21215 32.3135 6.89545 32.1633 6.69752 31.8789C5.56533 30.2593 4.52024 28.5844 3.57015 26.8936C3.15845 26.1589 2.58839 25.1476 1.93917 23.7413C1.34536 22.4614 0.814899 21.142 0.355691 19.8147C0.331939 19.7514 0.316104 19.6882 0.308187 19.6171C0.300269 19.5381 0.276517 19.4196 0.252765 19.2695C-0.0560131 17.5156 -0.2777 15.7379 0.743643 14.9716C1.03659 14.7503 1.66998 14.4501 2.60423 14.9163C3.11094 15.1612 3.31679 15.7774 3.07135 16.2752C2.87342 16.6702 2.44588 16.8914 2.03418 16.8361C2.02626 17.1916 2.07376 17.8237 2.26378 18.914C2.28753 19.0404 2.30337 19.151 2.3192 19.2379C2.74674 20.4704 3.23762 21.695 3.79184 22.8801C4.40939 24.2153 4.95569 25.1792 5.35156 25.8902C6.26998 27.5178 7.2834 29.1374 8.376 30.7096C8.70061 31.1679 8.58185 31.8078 8.12264 32.1238C7.94846 32.2502 7.74261 32.3056 7.54468 32.3056L7.53676 32.3135Z" fill="#408F95"/>
<path d="M52.8154 57.2794C52.5858 57.2794 52.3562 57.2004 52.1662 57.0424C50.559 55.7151 48.8251 54.6406 47.0278 53.8505C45.7136 53.2738 44.4309 52.9262 42.6495 52.4442C42.0557 52.2783 41.4065 52.1045 40.686 51.8991L38.1366 51.1801C36.0464 50.5876 35.4843 50.4296 34.5342 50.1056C32.444 49.3946 30.4013 48.5413 28.4537 47.5774C22.2543 44.5041 15.9125 39.8585 15.6433 39.661C12.7693 37.5278 9.97448 35.1971 7.33008 32.7322C6.91837 32.345 6.89462 31.7051 7.28257 31.2942C7.67052 30.8834 8.31183 30.8597 8.72354 31.2468C11.3125 33.6565 14.044 35.9398 16.8547 38.0256C16.918 38.073 23.3311 42.7581 29.3642 45.7524C31.2327 46.6768 33.1883 47.4905 35.1914 48.1779C36.086 48.4781 36.5848 48.6203 38.6829 49.2129L41.2323 49.9318C41.9449 50.1372 42.5862 50.3111 43.18 50.4691C45.0406 50.9747 46.3786 51.346 47.8354 51.9781C49.8148 52.8393 51.707 54.0165 53.4568 55.4623C53.8922 55.8178 53.9476 56.4578 53.5914 56.8923C53.3934 57.1372 53.1005 57.2636 52.8075 57.2636L52.8154 57.2794Z" fill="#408F95"/>
<path d="M83.2821 62.897C83.0288 62.897 82.7833 62.8022 82.5854 62.6205C82.0628 62.1306 81.5165 61.6645 80.9465 61.2299C79.0701 59.792 77.2728 58.9309 74.8026 57.9275C69.7671 55.8891 64.3358 54.2142 62.2456 53.7243C61.9369 53.6532 61.1689 53.4715 60.1792 53.116C59.3241 52.8079 58.4928 52.4365 57.6931 52.002C57.6298 51.9704 57.5744 51.9309 57.5189 51.8835C57.0914 51.5122 56.6718 51.1171 56.2759 50.6984C55.3496 49.7187 54.7558 48.8418 54.5103 48.4625L54.4391 48.3598C51.7709 44.4964 48.8969 40.6962 45.9121 37.0856C43.1568 33.7594 40.9954 31.1364 37.8047 28.1105C34.4319 24.9186 30.7107 22.0191 26.7362 19.5067C26.2611 19.2065 26.1186 18.5744 26.4195 18.1004C26.7203 17.6264 27.3537 17.4841 27.8288 17.7844C31.9141 20.3679 35.7461 23.3464 39.214 26.6331C42.4918 29.7459 44.7007 32.4084 47.4876 35.782C50.52 39.4479 53.4257 43.2876 56.1255 47.2063L56.2126 47.3327C56.4343 47.6646 56.9568 48.4388 57.7644 49.3C58.0811 49.6397 58.4215 49.9636 58.7699 50.2639C59.4429 50.6273 60.1554 50.9433 60.8759 51.204C61.7547 51.5201 62.4277 51.6781 62.689 51.7413C65.2859 52.3496 70.931 54.1589 75.5785 56.0471C78.2071 57.1137 80.131 58.0381 82.1974 59.6182C82.8229 60.1002 83.4246 60.6137 83.9947 61.143C84.4064 61.5302 84.4222 62.1701 84.0343 62.581C83.8363 62.7943 83.5671 62.897 83.29 62.897H83.2821Z" fill="#408F95"/>
<path d="M65.0259 81.2738C64.6617 81.2738 64.3054 81.0763 64.1233 80.7286L58.3832 69.8811C57.4093 67.7874 56.5226 65.6858 55.7229 63.5764C55.1212 61.9962 54.5591 60.3766 54.0524 58.7491C53.8861 58.2118 54.179 57.643 54.7174 57.4771C55.2558 57.3112 55.8259 57.6035 55.9921 58.1407C56.4909 59.7287 57.0451 61.3168 57.631 62.8574C58.4148 64.9195 59.2778 66.9815 60.2121 68.9804L65.9284 79.7806C66.1897 80.2783 65.9997 80.8945 65.5009 81.1553C65.3505 81.2343 65.1842 81.2738 65.0259 81.2738Z" fill="#408F95"/>
<path d="M65.0173 81.2737C64.471 81.2737 64.0197 80.8391 63.9959 80.2861C63.893 77.1021 64.3047 74.0051 65.2152 71.0739C65.9832 68.6168 66.5849 66.6733 68.3742 64.9193C70.3932 62.9284 72.705 62.3753 75.6345 61.6722L75.8878 61.609C78.2868 61.0322 80.7887 60.7794 83.3143 60.8663C83.8765 60.8821 84.3198 61.3562 84.2961 61.9171C84.2803 62.478 83.8211 62.9284 83.2431 62.8968C80.8995 62.8178 78.5877 63.0469 76.3629 63.5841L76.1095 63.6473C73.3859 64.3031 71.4224 64.7771 69.7994 66.3731C68.3742 67.7715 67.8913 69.3279 67.1629 71.6823C66.3157 74.3922 65.9357 77.268 66.0386 80.2229C66.0544 80.7838 65.619 81.2579 65.0489 81.2737C65.041 81.2737 65.0252 81.2737 65.0173 81.2737Z" fill="#408F95"/>
<path d="M21.9219 34.1701C20.5839 34.1701 18.6758 33.9884 16.7281 32.7717C14.3054 31.2627 13.2286 29.0742 12.8011 27.9049C12.6111 27.3756 12.8803 26.7909 13.4107 26.6013C13.9412 26.4117 14.5271 26.6803 14.7171 27.2097C15.0575 28.134 15.9047 29.8643 17.8128 31.0494C19.713 32.2345 21.534 32.1634 22.7374 32.116C22.9116 32.116 23.0541 32.1002 23.1729 32.0844C22.8166 31.6498 22.1278 31.002 21.0985 30.1487C19.3804 28.7266 17.4248 27.5099 15.2713 26.5302C14.7567 26.2932 14.535 25.6927 14.7725 25.1792C15.0021 24.6657 15.6118 24.4444 16.1264 24.6815C18.4383 25.7402 20.5522 27.0517 22.4049 28.5844C24.3921 30.2277 25.9835 31.7051 25.3343 33.1035C24.9384 33.9568 23.8458 34.1069 22.8166 34.1464C22.5632 34.1543 22.2624 34.1701 21.9298 34.1701H21.9219Z" fill="#408F95"/>
<path d="M8.09919 28.6793C8.05169 28.6793 8.0121 28.6793 7.9646 28.6793C7.40246 28.6793 6.95117 28.2132 6.95117 27.6522C6.95117 27.0913 7.41038 26.641 7.97251 26.641C8.0121 26.641 8.05961 26.641 8.09919 26.641C10.0944 26.641 12.0025 26.2301 13.768 25.4085C14.7181 24.966 15.6207 24.4051 16.452 23.7493C16.8954 23.3938 17.5367 23.4649 17.8851 23.9073C18.2334 24.3498 18.1701 24.9897 17.7267 25.3374C16.7687 26.1037 15.7316 26.7437 14.631 27.2572C12.5963 28.1974 10.4032 28.6793 8.10711 28.6793H8.09919Z" fill="#408F95"/>
<path d="M9.48414 17.705C9.04868 17.705 8.60531 17.5628 8.24111 17.2626C7.82941 16.9307 7.57605 16.4567 7.52063 15.9353C7.46521 15.4138 7.62356 14.9003 7.95609 14.4894C8.28862 14.0786 8.76366 13.8258 9.28621 13.7705C9.80875 13.7152 10.3234 13.8653 10.7351 14.205C11.1468 14.5368 11.4001 15.0109 11.4556 15.5323C11.511 16.0538 11.3526 16.5673 11.0201 16.9781C10.6322 17.4601 10.0621 17.705 9.48414 17.705ZM9.48414 15.6745C9.48414 15.6745 9.44455 15.6745 9.43664 15.6982C9.4208 15.7219 9.4208 15.7693 9.44455 15.7851C9.46831 15.8088 9.51581 15.8009 9.53165 15.7772C9.54748 15.7535 9.54748 15.7061 9.52373 15.6903C9.51581 15.6824 9.49998 15.6745 9.48414 15.6745Z" fill="#408F95"/>
<path d="M23.3953 49.2207C22.3423 49.2207 21.1864 48.6123 20.7588 48.3595C19.8642 47.8381 19.0012 47.2534 18.1857 46.6135C17.0693 45.7365 16.0242 44.741 15.09 43.6665C11.7013 39.7557 10.1179 37.1564 7.4972 32.8348C7.20426 32.3528 7.3626 31.7287 7.83765 31.4363C8.32061 31.144 8.94608 31.302 9.23902 31.7761C11.8913 36.1451 13.3561 38.5548 16.6339 42.3313C17.481 43.311 18.4311 44.2117 19.4445 45.0096C20.1808 45.5943 20.9726 46.1236 21.7881 46.5977C22.2948 46.89 22.8173 47.0796 23.1578 47.1507C23.0786 46.6214 22.7065 45.4837 21.6535 43.5559C21.3843 43.0661 21.5664 42.4419 22.0652 42.1733C22.5561 41.9047 23.1815 42.0864 23.4507 42.5841C25.818 46.9374 25.3747 48.1699 24.6304 48.8098C24.2821 49.1022 23.8545 49.2128 23.4032 49.2128L23.3953 49.2207Z" fill="#408F95"/>
<path d="M43.4031 60.6766C43.2843 60.6766 43.1655 60.6529 43.0468 60.6133C40.3549 59.6021 37.8926 58.1405 35.7311 56.268C33.055 53.961 30.8778 51.0141 29.4289 47.7669C29.1993 47.2534 29.4289 46.6529 29.9435 46.4238C30.4581 46.1947 31.0599 46.4238 31.2895 46.9374C32.6196 49.9238 34.6148 52.6179 37.0612 54.7274C38.7951 56.2285 40.7428 57.4373 42.8647 58.3459C43.1339 57.6111 43.4268 56.5524 43.316 55.5727C43.2764 55.2251 43.213 54.6958 42.9043 54.1032C42.8093 53.9294 42.7301 53.8188 42.548 53.5502L42.3976 53.329C41.97 52.6969 41.6296 52.1755 41.4079 51.8278C41.107 51.3538 41.2416 50.7218 41.7167 50.4215C42.1917 50.1213 42.8172 50.2556 43.126 50.7297C43.3397 51.0694 43.6723 51.575 44.0919 52.1913L44.2423 52.4125C44.4877 52.7759 44.5907 52.926 44.7094 53.1631C45.2003 54.0874 45.2953 54.9328 45.3428 55.3436C45.5803 57.4057 44.6223 59.5152 44.3215 60.1156C44.1473 60.4711 43.7831 60.6766 43.411 60.6766H43.4031Z" fill="#408F95"/>
<path d="M54.0046 45.2862C53.8305 45.2862 53.6563 45.2467 53.4979 45.1519C52.722 44.7095 51.9224 44.1881 51.0515 43.5718C50.5923 43.2479 50.4893 42.6079 50.8139 42.1497C51.1386 41.6914 51.7799 41.5887 52.2391 41.9127C53.0466 42.4894 53.7909 42.9714 54.5114 43.3822C55.0022 43.6587 55.1685 44.2829 54.8914 44.7727C54.7014 45.0966 54.3609 45.2862 54.0046 45.2862Z" fill="#408F95"/>
<path d="M58.0175 46.8587C56.7032 46.8587 55.1118 46.2661 53.4254 45.1047C52.9583 44.7887 52.8474 44.1488 53.1641 43.6905C53.4808 43.2244 54.1221 43.1138 54.5813 43.4298C56.7428 44.9151 58.3025 45.0652 58.833 44.5675C59.3238 44.1093 59.308 42.6713 58.0966 40.5935C57.8116 40.1115 57.9779 39.4874 58.4688 39.203C58.9517 38.9185 59.5772 39.0845 59.8622 39.5743C61.4774 42.3553 61.612 44.7808 60.2185 46.0607C59.6405 46.5901 58.8884 46.8587 58.0175 46.8587Z" fill="#408F95"/>
<path d="M57.0836 38.8078C56.7986 38.8078 56.5136 38.6892 56.3077 38.4522C54.7876 36.6904 53.1803 34.9838 51.5098 33.38C45.5717 27.6521 38.6678 22.8959 30.9958 19.23C30.4891 18.9851 30.2754 18.3767 30.5129 17.8711C30.7583 17.3654 31.36 17.1521 31.8747 17.3891C39.7445 21.1419 46.8306 26.0324 52.927 31.9105C54.6371 33.5617 56.2998 35.3157 57.8516 37.1249C58.2158 37.5516 58.1683 38.1915 57.7408 38.5628C57.5507 38.7288 57.3132 38.8078 57.0757 38.8078H57.0836Z" fill="#408F95"/>
<path d="M28.97 18.2663C28.8513 18.2663 28.7246 18.2426 28.6058 18.1952C28.4079 18.1162 28.1229 18.0135 27.7824 17.8949C26.3335 17.3814 24.8451 16.9548 23.3487 16.6229C21.781 16.2753 20.1817 16.0304 18.5824 15.8882C18.0203 15.8408 17.6086 15.343 17.6561 14.7821C17.7036 14.2212 18.1945 13.8103 18.7645 13.8577C20.4509 14.0078 22.1373 14.2686 23.792 14.632C25.3676 14.9796 26.9352 15.43 28.4633 15.9751C28.8196 16.1015 29.1204 16.2121 29.3342 16.299C29.8568 16.4965 30.126 17.0891 29.9201 17.6105C29.7618 18.0135 29.3817 18.2663 28.97 18.2663Z" fill="#408F95"/>
<path d="M39.1192 22.6825C39.0321 22.6825 38.945 22.6588 38.8659 22.6193C38.2404 22.3032 37.5912 22.0504 36.9182 21.8608C36.0552 21.6238 35.1605 21.5053 34.2817 21.4974C34.0442 21.4974 33.8462 21.4974 33.7196 21.5132C33.3949 21.529 33.1416 21.292 33.1257 20.9838C33.1099 20.6757 33.3474 20.4071 33.6562 20.3913C33.8066 20.3834 34.0283 20.3755 34.2896 20.3755C35.2714 20.3755 36.261 20.5098 37.219 20.7784C37.9633 20.9838 38.6917 21.2683 39.3805 21.6159C39.6576 21.7581 39.7684 22.0978 39.6259 22.3664C39.523 22.564 39.333 22.6746 39.1271 22.6746L39.1192 22.6825Z" fill="#408F95"/>
<path d="M43.3791 25.898C43.3158 25.898 43.2524 25.8901 43.1891 25.8664C42.524 25.6294 41.8431 25.424 41.1464 25.2423C40.2517 25.0132 39.3491 24.8472 38.4624 24.7287C38.2249 24.6971 38.0349 24.6813 37.9003 24.6655C37.5915 24.6339 37.3619 24.3653 37.3935 24.0572C37.4252 23.7491 37.7023 23.5278 38.0032 23.5515C38.1457 23.5673 38.3515 23.5831 38.597 23.6147C39.5233 23.7333 40.4734 23.915 41.4156 24.152C42.144 24.3337 42.8645 24.5549 43.5612 24.8077C43.8541 24.9105 44.0046 25.2344 43.9016 25.5267C43.8225 25.7558 43.6008 25.898 43.3712 25.898H43.3791Z" fill="#408F95"/>
<path d="M48.644 30.0225C48.5728 30.0225 48.5015 30.0067 48.4223 29.9751C47.7731 29.6986 47.1001 29.4773 46.4193 29.2956C45.5325 29.0665 44.6378 28.9164 43.759 28.8532C43.5215 28.8374 43.3315 28.8295 43.1969 28.8216C42.8881 28.8137 42.6427 28.553 42.6506 28.2448C42.6585 27.9367 42.9119 27.6997 43.2285 27.6997C43.3711 27.6997 43.5848 27.7155 43.8382 27.7313C44.7883 27.8024 45.7542 27.9604 46.7043 28.2132C47.4327 28.4029 48.1611 28.6478 48.8578 28.948C49.1428 29.0665 49.2774 29.3983 49.1587 29.6828C49.0716 29.8961 48.8578 30.0225 48.644 30.0225Z" fill="#408F95"/>
<path d="M39.9507 53.811C39.8003 53.811 39.6578 53.7557 39.547 53.6372L36.3879 50.3505C36.1742 50.1293 36.1821 49.7738 36.4038 49.5604C36.6254 49.3471 36.9817 49.355 37.1955 49.5762L40.3545 52.8629C40.5683 53.0841 40.5604 53.4397 40.3387 53.653C40.2279 53.7557 40.0933 53.811 39.9507 53.811Z" fill="#408F95"/>
<path d="M63.5282 71.1292C63.1798 71.1292 62.8552 70.9159 62.7364 70.5683C62.198 69.0435 61.913 67.4712 61.8734 65.8832C61.8259 63.7579 61.7705 61.7591 63.164 60.2738C64.5812 58.7648 66.6318 58.7094 68.8091 58.6462C70.5905 58.5988 72.356 58.8517 74.0741 59.3968C74.5175 59.539 74.7629 60.013 74.6204 60.4555C74.4779 60.8979 74.0029 61.1428 73.5595 61.0006C72.0314 60.5108 70.44 60.2896 68.8566 60.3291C66.8851 60.3844 65.3333 60.4239 64.3912 61.4273C63.4727 62.4069 63.5123 63.9239 63.5519 65.8437C63.5836 67.2579 63.8448 68.6642 64.3199 70.0153C64.4703 70.4498 64.2407 70.9317 63.8053 71.0818C63.7103 71.1134 63.6152 71.1292 63.5282 71.1292Z" fill="#408F95"/>
</g>
<defs>
<clipPath id="clip0_1_1114">
<rect width="437" height="201" fill="white"/>
</clipPath>
</defs>
</svg>
